<svg width="103" height="19" viewBox="0 0 103 19" fill="none" xmlns="http://www.w3.org/2000/svg">
<path d="M6.864 1.2V18H3.744V3.816H0.192V1.2H6.864ZM22.3646 15.36V18H9.98063V15.912L16.6526 9.576C17.4046 8.856 17.9086 8.232 18.1646 7.704C18.4366 7.16 18.5726 6.624 18.5726 6.096C18.5726 5.312 18.3086 4.712 17.7806 4.296C17.2526 3.88 16.4766 3.672 15.4526 3.672C13.7406 3.672 12.4286 4.256 11.5166 5.424L9.33263 3.744C9.98863 2.864 10.8686 2.184 11.9726 1.704C13.0926 1.208 14.3406 0.959999 15.7166 0.959999C17.5406 0.959999 18.9966 1.392 20.0846 2.256C21.1726 3.12 21.7166 4.296 21.7166 5.784C21.7166 6.696 21.5246 7.552 21.1406 8.352C20.7566 9.152 20.0206 10.064 18.9326 11.088L14.4446 15.36H22.3646ZM46.9262 1.2V18H43.8062V10.8H35.1182V18H31.9982V1.2H35.1182V8.136H43.8062V1.2H46.9262ZM56.8999 18.168C55.6039 18.168 54.4359 17.888 53.3959 17.328C52.3559 16.768 51.5399 15.992 50.9479 15C50.3719 13.992 50.0839 12.856 50.0839 11.592C50.0839 10.328 50.3719 9.2 50.9479 8.208C51.5399 7.216 52.3559 6.44 53.3959 5.88C54.4359 5.32 55.6039 5.04 56.8999 5.04C58.2119 5.04 59.3879 5.32 60.4279 5.88C61.4679 6.44 62.2759 7.216 62.8519 8.208C63.4439 9.2 63.7399 10.328 63.7399 11.592C63.7399 12.856 63.4439 13.992 62.8519 15C62.2759 15.992 61.4679 16.768 60.4279 17.328C59.3879 17.888 58.2119 18.168 56.8999 18.168ZM56.8999 15.6C58.0039 15.6 58.9159 15.232 59.6359 14.496C60.3559 13.76 60.7159 12.792 60.7159 11.592C60.7159 10.392 60.3559 9.424 59.6359 8.688C58.9159 7.952 58.0039 7.584 56.8999 7.584C55.7959 7.584 54.8839 7.952 54.1639 8.688C53.4599 9.424 53.1079 10.392 53.1079 11.592C53.1079 12.792 53.4599 13.76 54.1639 14.496C54.8839 15.232 55.7959 15.6 56.8999 15.6ZM79.0166 5.184V18H76.1606V16.368C75.6806 16.944 75.0806 17.392 74.3606 17.712C73.6406 18.016 72.8646 18.168 72.0326 18.168C70.3206 18.168 68.9686 17.696 67.9766 16.752C67.0006 15.792 66.5126 14.376 66.5126 12.504V5.184H69.5126V12.096C69.5126 13.248 69.7686 14.112 70.2806 14.688C70.8086 15.248 71.5526 15.528 72.5126 15.528C73.5846 15.528 74.4326 15.2 75.0566 14.544C75.6966 13.872 76.0166 12.912 76.0166 11.664V5.184H79.0166ZM85.8006 7.056C86.6646 5.712 88.1846 5.04 90.3606 5.04V7.896C90.1046 7.848 89.8726 7.824 89.6646 7.824C88.4966 7.824 87.5846 8.168 86.9286 8.856C86.2726 9.528 85.9446 10.504 85.9446 11.784V18H82.9446V5.184H85.8006V7.056ZM96.9124 18.168C95.8724 18.168 94.8564 18.032 93.8644 17.76C92.8724 17.488 92.0804 17.144 91.4884 16.728L92.6404 14.448C93.2164 14.832 93.9044 15.144 94.7044 15.384C95.5204 15.608 96.3204 15.72 97.1044 15.72C98.8964 15.72 99.7924 15.248 99.7924 14.304C99.7924 13.856 99.5604 13.544 99.0964 13.368C98.6484 13.192 97.9204 13.024 96.9124 12.864C95.8564 12.704 94.9924 12.52 94.3204 12.312C93.6644 12.104 93.0884 11.744 92.5924 11.232C92.1124 10.704 91.8724 9.976 91.8724 9.048C91.8724 7.832 92.3764 6.864 93.3844 6.144C94.4084 5.408 95.7844 5.04 97.5124 5.04C98.3924 5.04 99.2724 5.144 100.152 5.352C101.032 5.544 101.752 5.808 102.312 6.144L101.16 8.424C100.072 7.784 98.8484 7.464 97.4884 7.464C96.6084 7.464 95.9364 7.6 95.4724 7.872C95.0244 8.128 94.8004 8.472 94.8004 8.904C94.8004 9.384 95.0404 9.728 95.5204 9.936C96.0164 10.128 96.7764 10.312 97.8004 10.488C98.8244 10.648 99.6644 10.832 100.32 11.04C100.976 11.248 101.536 11.6 102 12.096C102.48 12.592 102.72 13.296 102.72 14.208C102.72 15.408 102.2 16.368 101.16 17.088C100.12 17.808 98.7044 18.168 96.9124 18.168Z" fill="#E96B46"/>
</svg>
