<svg width="1280" height="1280" viewBox="0 0 1280 1280" fill="none" xmlns="http://www.w3.org/2000/svg">
<g clip-path="url(#clip0_640_2)">
<path d="M885.812 173.625C886.663 173.605 887.513 173.575 888.393 173.555C894.033 173.525 898.092 174.535 903.122 177.105C905.072 178.155 905.073 178.155 907.753 178.375C910.733 179.205 911.683 180.985 913.483 183.395C915.323 185.335 917.162 186.215 919.562 187.375C924.443 189.885 926.293 192.875 928.003 198.005C928.153 198.725 928.313 199.445 928.473 200.185C928.643 200.785 928.823 201.385 929.003 202.005C929.663 202.325 930.323 202.655 931.003 203.005C931.933 205.005 931.933 205.005 933.003 208.005C933.513 209.175 934.023 210.345 934.543 211.545C937.053 219.135 936.412 227.335 936.362 235.235C936.362 237.005 936.362 238.785 936.362 240.555C936.362 244.245 936.352 247.945 936.332 251.635C936.312 256.375 936.313 261.105 936.323 265.845C936.323 269.495 936.312 273.145 936.302 276.795C936.302 278.545 936.302 280.285 936.302 282.035C936.302 284.475 936.292 286.905 936.272 289.345C936.282 290.425 936.283 290.425 936.283 291.525C936.243 295.235 935.893 297.805 934.003 301.005C933.903 303.395 933.902 303.395 934.122 305.875C934.242 310.785 933.083 313.105 930.003 317.005C929.643 318.105 929.642 318.105 929.272 319.225C927.422 323.255 924.552 325.955 921.432 329.065C920.852 329.675 920.273 330.285 919.673 330.915C915.843 334.755 912.273 337.105 907.233 339.085C905.053 339.975 903.133 341.055 901.103 342.235C896.273 344.675 891.622 344.485 886.312 344.315C885.392 344.305 884.463 344.295 883.513 344.285C872.433 344.095 872.432 344.095 869.122 341.565C866.972 339.765 866.973 339.765 863.693 339.245C858.933 337.635 856.063 334.945 853.003 331.005C853.003 330.345 853.003 329.685 853.003 329.005C852.253 328.975 851.513 328.955 850.753 328.935C847.273 327.755 846.473 325.985 844.853 322.785C844.573 322.195 844.293 321.605 844.003 321.005C843.583 320.195 843.173 319.395 842.753 318.565C842.503 318.045 842.253 317.535 842.003 317.005C840.913 317.215 840.913 317.215 839.812 317.435C837.213 317.955 834.603 318.475 832.003 319.005C831.673 319.995 831.343 320.985 831.003 322.005C828.063 323.625 828.063 323.625 825.003 325.005C824.343 325.335 823.683 325.655 823.003 326.005C822.013 325.665 821.023 325.345 820.003 325.005C820.333 326.315 820.663 327.635 821.003 329.005C816.493 332.535 812.173 335.475 807.003 338.005C805.983 338.975 804.983 339.975 804.003 341.005C802.343 342.025 800.673 343.015 799.003 344.005C796.723 345.495 794.463 347.005 792.203 348.525C790.423 349.725 788.612 350.895 786.812 352.065C783.892 354.015 783.892 354.015 780.932 356.565C778.372 358.695 775.863 360.325 773.003 362.005C772.343 362.655 771.683 363.315 771.003 364.005C769.683 364.005 768.363 364.005 767.003 364.005C766.673 364.995 766.343 365.985 766.003 367.005C764.023 368.035 762.013 369.035 760.003 370.005C759.223 370.805 759.222 370.805 758.432 371.625C757.002 373.005 757.002 373.005 754.432 373.435C753.632 373.625 752.833 373.805 752.003 374.005C751.703 374.615 751.413 375.225 751.103 375.855C749.743 378.495 748.382 379.325 745.872 380.875C742.742 382.865 739.743 384.915 736.812 387.185C733.703 389.565 730.523 391.275 727.003 393.005C725.983 393.975 724.983 394.975 724.003 396.005C722.333 397.005 720.673 398.005 719.003 399.005C718.173 399.655 717.353 400.315 716.503 401.005C714.083 402.935 711.673 404.465 709.003 406.005C708.113 406.555 707.223 407.115 706.312 407.685C704.003 409.005 704.003 409.005 702.003 409.005C701.673 409.995 701.343 410.985 701.003 412.005C699.023 413.035 697.013 414.035 695.003 415.005C694.223 415.805 694.222 415.805 693.432 416.625C692.002 418.005 692.002 418.005 689.432 418.435C688.632 418.625 687.833 418.805 687.003 419.005C686.723 419.595 686.433 420.195 686.143 420.815C684.663 423.645 682.903 424.735 680.253 426.505C679.353 427.105 678.453 427.715 677.523 428.335C676.693 428.885 675.853 429.435 675.003 430.005C673.993 430.685 672.982 431.365 671.932 432.065C670.972 432.705 670.003 433.345 669.003 434.005C666.723 435.515 664.443 437.035 662.173 438.555C660.373 439.755 658.563 440.945 656.753 442.125C653.993 443.955 653.993 443.955 651.503 446.005C648.773 448.185 645.903 450.065 643.003 452.005C642.343 452.665 641.683 453.315 641.003 454.005C639.683 454.005 638.363 454.005 637.003 454.005C636.673 454.995 636.343 455.985 636.003 457.005C634.403 458.145 634.402 458.145 632.372 459.245C628.482 461.535 625.642 464.195 622.642 467.545C620.752 469.215 619.413 469.425 617.003 470.005C615.783 471.415 614.572 472.845 613.432 474.325C611.872 476.155 610.192 477.555 608.312 479.065C605.392 481.475 604.183 483.345 603.003 487.005C602.023 488.025 601.023 489.025 600.003 490.005C598.823 492.095 598.823 492.095 598.003 494.005C597.343 494.005 596.683 494.005 596.003 494.005C596.063 494.635 596.123 495.275 596.193 495.935C596.013 498.815 595.553 500.215 594.473 502.805C592.293 509.195 592.843 515.475 593.193 522.125C593.233 523.365 593.273 524.595 593.323 525.875C593.683 534.625 593.683 534.625 596.003 543.005C596.663 543.325 597.323 543.665 598.003 544.005C598.243 544.905 598.493 545.815 598.753 546.745C601.253 553.245 607.292 556.015 613.302 558.865C629.662 565.745 648.653 564.835 666.003 563.005C666.333 562.675 666.663 562.335 667.003 562.005C668.373 561.815 669.742 561.675 671.122 561.565C675.282 561.135 678.993 560.225 683.003 559.005C684.963 558.535 686.912 558.085 688.872 557.625C693.522 556.485 697.663 554.965 701.973 552.915C704.893 551.605 707.923 550.825 711.003 550.005C715.743 548.175 720.392 546.125 725.062 544.125C727.723 543.105 730.193 542.455 733.003 542.005C733.003 541.335 733.003 540.685 733.003 540.005C736.313 538.575 739.443 537.605 743.003 537.005C743.003 536.335 743.003 535.685 743.003 535.005C746.313 533.575 749.443 532.605 753.003 532.005C753.003 531.335 753.003 530.685 753.003 530.005C753.673 529.675 754.353 529.345 755.043 529.015C755.943 528.575 756.833 528.135 757.753 527.685C759.073 527.045 759.073 527.045 760.423 526.385C763.013 525.085 763.013 525.085 765.143 523.335C767.003 522.005 767.003 522.005 770.003 522.005C770.003 521.335 770.003 520.685 770.003 520.005C772.193 518.415 772.192 518.415 775.122 516.625C776.132 516.005 777.133 515.375 778.163 514.735C779.103 514.165 780.033 513.595 781.003 513.005C785.173 510.495 785.172 510.495 788.432 506.935C790.722 504.095 793.673 503.355 797.003 502.005C797.333 501.335 797.663 500.685 798.003 500.005C800.003 499.005 802.003 498.005 804.003 497.005C804.863 496.295 805.732 495.595 806.622 494.875C808.882 493.095 810.203 492.415 813.003 492.005C813.003 491.335 813.003 490.685 813.003 490.005C814.833 488.635 814.833 488.635 817.253 487.125C820.573 484.985 823.253 482.845 826.003 480.005C827.663 478.995 829.333 477.995 831.003 477.005C832.483 475.765 832.483 475.765 834.003 474.505C837.003 472.005 837.002 472.005 839.622 470.435C842.072 469.085 842.073 469.085 844.003 467.005C846.163 464.835 848.393 463.565 851.003 462.005C851.643 461.335 852.282 460.685 852.932 460.005C855.002 458.005 855.003 458.005 858.003 456.565C861.353 454.815 862.683 452.925 865.003 450.005C866.643 449.285 868.313 448.615 870.003 448.005C871.703 446.715 873.363 445.375 875.003 444.005C878.673 441.165 882.363 438.415 886.253 435.875C888.993 434.135 888.992 434.135 890.932 432.005C893.172 429.835 895.563 428.475 898.283 426.985C901.463 425.165 904.132 422.785 906.842 420.335C911.042 416.545 915.043 413.715 920.003 411.005C922.363 409.235 924.582 407.375 926.772 405.405C930.982 401.625 935.273 398.405 940.033 395.345C942.303 393.795 944.093 391.975 946.003 390.005C946.763 389.565 947.522 389.135 948.312 388.685C950.832 387.105 952.463 385.575 954.503 383.435C957.223 380.615 959.313 379.355 963.003 378.005C964.693 376.355 966.353 374.685 968.003 373.005C969.993 371.655 971.993 370.325 974.003 369.005C974.643 368.345 975.282 367.685 975.932 367.005C978.172 364.835 980.542 363.605 983.272 362.145C985.142 360.905 986.262 359.645 987.622 357.875C990.152 354.815 991.423 354.345 995.003 353.005C995.803 352.195 996.612 351.395 997.432 350.565C1000.15 347.855 1002.6 346.705 1006 345.005C1007.68 343.355 1009.35 341.685 1011 340.005C1011.78 339.545 1012.56 339.095 1013.37 338.625C1015.86 337.085 1017.43 335.605 1019.43 333.505C1022.38 330.445 1025.16 328.835 1029 327.005C1030.68 325.355 1032.35 323.685 1034 322.005C1035.66 320.985 1037.32 319.985 1039 319.005C1039.62 318.365 1040.23 317.725 1040.87 317.065C1043.12 314.885 1045.47 313.615 1048.2 312.135C1050.71 310.545 1052.57 308.525 1054.6 306.375C1056.51 304.495 1058.69 303.325 1061 302.005C1062.48 300.765 1062.48 300.765 1064 299.505C1066.6 297.335 1069.1 295.715 1072 294.005C1077.07 290.155 1082.15 285.975 1086.56 281.375C1088 280.005 1088 280.005 1090.87 278.625C1094.08 277.175 1094.08 277.175 1096.25 274.625C1099.48 271.535 1102.76 269.975 1106.79 268.115C1109.13 267.075 1109.13 267.075 1111 265.005C1117.33 262.055 1123.48 261.515 1130.37 261.625C1131.3 261.635 1132.22 261.645 1133.17 261.655C1143.25 261.885 1150.81 263.565 1159.02 269.595C1160.96 271.055 1160.96 271.055 1163.16 272.035C1165.79 273.415 1166.52 275.465 1168 278.005C1168.86 278.845 1169.73 279.695 1170.62 280.565C1172.97 282.965 1173.43 283.845 1174 287.005C1174.66 287.325 1175.32 287.655 1176 288.005C1176.67 289.665 1177.34 291.335 1178 293.005C1178.51 293.615 1179.02 294.235 1179.54 294.875C1181.27 297.405 1181.37 298.715 1181.37 301.765C1181.38 302.725 1181.38 303.685 1181.39 304.675C1181.38 305.735 1181.37 306.785 1181.37 307.875C1181.37 309.005 1181.37 310.135 1181.38 311.295C1181.39 315.105 1181.37 318.915 1181.36 322.725C1181.36 325.475 1181.36 328.215 1181.37 330.965C1181.37 336.955 1181.37 342.945 1181.36 348.935C1181.34 357.835 1181.34 366.745 1181.34 375.645C1181.34 390.625 1181.33 405.605 1181.31 420.575C1181.3 435.415 1181.29 450.245 1181.28 465.085C1181.28 466.005 1181.28 466.925 1181.28 467.875C1181.28 472.555 1181.28 477.235 1181.28 481.915C1181.27 515.085 1181.25 548.255 1181.22 581.425C1181.2 613.645 1181.18 645.875 1181.16 678.105C1181.16 679.095 1181.16 680.085 1181.16 681.115C1181.16 691.085 1181.15 701.055 1181.15 711.025C1181.14 731.345 1181.13 751.655 1181.12 771.975C1181.12 772.905 1181.12 773.845 1181.12 774.805C1181.1 837.205 1181.05 899.605 1181 962.005C1180.34 962.005 1179.68 962.005 1179 962.005C1179 964.305 1179 966.625 1179 969.005C1178.34 969.005 1177.68 969.005 1177 969.005C1176.87 969.555 1176.75 970.105 1176.62 970.675C1174.72 977.615 1171.27 981.555 1166.12 986.435C1165.41 987.145 1164.71 987.845 1163.98 988.575C1160.5 991.965 1157.75 994.585 1153 996.005C1152.01 995.665 1151.02 995.345 1150 995.005C1150 995.655 1150 996.325 1150 997.005C1149.34 997.005 1148.68 997.005 1148 997.005C1148.33 998.325 1148.66 999.635 1149 1001C1148.34 1001.35 1147.68 1001.7 1147 1002.06C1143.68 1004.2 1140.92 1006.66 1137.99 1009.29C1136.27 1010.76 1134.58 1012.02 1132.69 1013.24C1130.04 1014.81 1130.04 1014.81 1128.43 1016.68C1127 1018 1127 1018 1124.43 1018.43C1123.63 1018.62 1122.83 1018.8 1122 1019C1121.72 1019.6 1121.43 1020.2 1121.14 1020.82C1119.66 1023.64 1117.91 1024.65 1115.25 1026.37C1112.11 1028.48 1109.29 1030.51 1106.69 1033.24C1104.17 1035.82 1102.09 1037.23 1099 1039C1096.93 1040.53 1094.89 1042.1 1092.86 1043.69C1091 1045 1091 1045 1088 1046C1087.01 1045.67 1086.02 1045.34 1085 1045C1085 1045.65 1085 1046.32 1085 1047C1084.34 1047 1083.68 1047 1083 1047C1083.33 1048.32 1083.66 1049.63 1084 1051C1083.34 1051.35 1082.68 1051.7 1082 1052.06C1078.68 1054.2 1075.92 1056.66 1072.99 1059.29C1071.27 1060.76 1069.58 1062.02 1067.69 1063.24C1065.04 1064.81 1065.04 1064.81 1063.43 1066.68C1062 1068 1062 1068 1059.43 1068.43C1058.63 1068.62 1057.83 1068.8 1057 1069C1056.72 1069.6 1056.44 1070.2 1056.15 1070.82C1054.63 1073.69 1052.84 1074.66 1050.06 1076.31C1049.18 1076.84 1048.31 1077.37 1047.41 1077.92C1045 1079 1045 1079 1042 1078C1042 1078.65 1042 1079.32 1042 1080C1041.34 1080 1040.68 1080 1040 1080C1040 1080.65 1040 1081.32 1040 1082C1039.34 1082 1038.68 1082 1038 1082C1038.33 1083.32 1038.66 1084.63 1039 1086C1038.34 1086.37 1037.68 1086.74 1037 1087.12C1033.79 1089.13 1030.85 1091.36 1027.86 1093.69C1026 1095 1026 1095 1023 1096C1022.01 1095.67 1021.02 1095.34 1020 1095C1020 1095.65 1020 1096.32 1020 1097C1019.34 1097 1018.68 1097 1018 1097C1018.33 1098.32 1018.66 1099.63 1019 1101C1018.34 1101.35 1017.68 1101.7 1017 1102.06C1013.68 1104.2 1010.92 1106.66 1007.99 1109.29C1005.48 1111.44 1002.75 1113.18 1000 1115C999.303 1115.74 998.602 1116.48 997.872 1117.24C996.002 1119 996.003 1119 992.003 1119C991.773 1119.58 991.542 1120.17 991.302 1120.78C989.662 1123.57 987.832 1124.73 985.122 1126.5C982.412 1128.27 980.142 1129.84 977.932 1132.21C976.002 1134 976.003 1134 972.003 1134C971.663 1134.87 971.662 1134.87 971.312 1135.77C969.653 1138.59 967.783 1139.77 965.062 1141.56C962.072 1143.54 959.523 1145.46 957.003 1148C956.193 1148.28 955.392 1148.57 954.562 1148.87C951.842 1149.82 951.843 1149.82 950.193 1152.31C947.723 1155.34 945.262 1156.86 941.902 1158.78C939.942 1159.93 939.943 1159.93 938.413 1161.62C937.003 1163 937.002 1163 934.432 1163.43C933.632 1163.62 932.833 1163.8 932.003 1164C931.713 1164.6 931.422 1165.2 931.122 1165.82C929.712 1168.54 928.152 1169.61 925.622 1171.31C924.852 1171.84 924.083 1172.37 923.293 1172.92C921.003 1174 921.002 1174 918.712 1173.66C917.862 1173.33 917.863 1173.33 917.003 1173C917.003 1173.65 917.003 1174.32 917.003 1175C916.343 1175 915.683 1175 915.003 1175C915.003 1176.32 915.003 1177.63 915.003 1179C914.043 1179.15 914.043 1179.15 913.062 1179.31C912.382 1179.53 911.703 1179.76 911.003 1180C910.673 1180.99 910.343 1181.98 910.003 1183C907.853 1184.68 907.853 1184.68 905.193 1186.43C902.463 1188.23 900.163 1189.83 897.923 1192.22C896.003 1194 896.003 1194 892.003 1194C891.773 1194.58 891.533 1195.17 891.293 1195.78C889.683 1198.55 887.913 1199.73 885.253 1201.51C884.353 1202.11 883.453 1202.71 882.533 1203.33C880.603 1204.6 878.683 1205.87 876.753 1207.13C873.873 1209.02 873.872 1209.01 870.932 1211.56C868.372 1213.69 865.863 1215.33 863.003 1217.01C862.343 1217.67 861.683 1218.32 861.003 1219.01C859.683 1219.01 858.363 1219.01 857.003 1219.01C856.773 1219.59 856.533 1220.18 856.293 1220.79C854.683 1223.56 852.913 1224.73 850.253 1226.51C849.353 1227.11 848.463 1227.7 847.533 1228.32C846.283 1229.15 846.283 1229.16 845.003 1230.01C844.403 1230.41 843.802 1230.82 843.182 1231.24C841.042 1232.69 838.892 1234.05 836.622 1235.31C833.382 1237.39 830.742 1239.91 827.962 1242.57C826.002 1244 826.003 1244.01 822.003 1244.01C821.673 1245 821.343 1245.99 821.003 1247.01C818.003 1249.01 818.003 1249.01 814.003 1249.01C814.003 1249.67 814.003 1250.32 814.003 1251.01C813.463 1251.24 812.933 1251.46 812.383 1251.69C808.253 1253.5 804.193 1255.39 800.193 1257.44C781.243 1267.01 781.243 1267.01 774.003 1267.01C774.003 1267.67 774.003 1268.32 774.003 1269.01C773.033 1269.15 772.062 1269.29 771.062 1269.44C768.132 1269.68 768.133 1269.68 767.003 1271.01C764.333 1271.15 761.673 1271.05 759.003 1271.01C758.673 1272 758.343 1272.99 758.003 1274.01C757.243 1273.98 756.483 1273.96 755.703 1273.93C754.703 1273.92 753.713 1273.9 752.693 1273.88C751.213 1273.85 751.213 1273.85 749.703 1273.81C746.773 1273.8 746.773 1273.8 744.003 1276.01C740.873 1276.35 737.763 1276.45 734.613 1276.56C731.603 1276.93 729.712 1277.44 726.962 1278.51C721.622 1280.32 716.653 1280.44 711.053 1280.4C710.033 1280.41 709.023 1280.41 707.973 1280.41C705.843 1280.41 703.702 1280.41 701.572 1280.4C698.312 1280.38 695.052 1280.4 691.792 1280.42C689.712 1280.41 687.633 1280.41 685.553 1280.4C684.583 1280.41 683.613 1280.42 682.613 1280.42C677.223 1280.37 673.763 1279.77 669.003 1277.01C666.903 1276.52 666.903 1276.52 664.913 1276.49C663.863 1276.44 663.863 1276.44 662.783 1276.39C662.073 1276.36 661.362 1276.33 660.622 1276.31C659.892 1276.27 659.153 1276.24 658.393 1276.2C656.593 1276.12 654.803 1276.07 653.003 1276.01C653.003 1275.34 653.003 1274.69 653.003 1274.01C652.093 1274.03 651.192 1274.04 650.262 1274.07C648.492 1274.09 648.493 1274.1 646.693 1274.13C645.513 1274.15 644.343 1274.17 643.133 1274.19C640.003 1274 640.003 1274.01 637.003 1272.01C634.723 1271.55 634.723 1271.55 632.312 1271.38C631.102 1271.27 631.103 1271.27 629.863 1271.15C629.253 1271.1 628.633 1271.06 628.003 1271.01C628.003 1270.34 628.003 1269.69 628.003 1269.01C625.693 1269.01 623.383 1269.01 621.003 1269.01C620.673 1268.34 620.343 1267.69 620.003 1267.01C618.173 1266.69 618.173 1266.69 616.003 1266.63C611.503 1266.24 608.073 1264.94 604.043 1262.94C602.043 1262.02 600.153 1261.47 598.003 1261.01C598.003 1260.34 598.003 1259.69 598.003 1259.01C596.423 1258.82 596.423 1258.82 594.812 1258.63C591.543 1258.09 588.993 1257.37 586.003 1256.01C586.003 1255.34 586.003 1254.69 586.003 1254.01C584.353 1254.01 582.703 1254.01 581.003 1254.01C580.673 1253.34 580.343 1252.69 580.003 1252.01C577.973 1251.35 577.973 1251.35 576.003 1251.01C576.003 1250.34 576.003 1249.69 576.003 1249.01C574.353 1249.01 572.703 1249.01 571.003 1249.01C570.673 1248.34 570.343 1247.69 570.003 1247.01C569.343 1246.84 568.683 1246.68 568.003 1246.51C567.343 1246.34 566.683 1246.18 566.003 1246.01C565.673 1245.34 565.343 1244.69 565.003 1244.01C563.793 1243.82 563.793 1243.82 562.562 1243.63C561.712 1243.42 560.873 1243.22 560.003 1243.01C558.933 1241.07 558.933 1241.07 558.003 1239.01C555.703 1237.6 553.563 1236.86 551.003 1236.01C551.003 1235.34 551.003 1234.69 551.003 1234.01C548.873 1232.9 546.843 1231.95 544.563 1231.19C541.333 1229.69 539.443 1227.57 537.003 1225.01C536.013 1224.34 535.023 1223.69 534.003 1223.01C533.093 1222.01 532.223 1220.99 531.373 1219.94C528.873 1216.95 526.222 1214.18 523.432 1211.44C513.492 1201.56 513.493 1201.55 513.003 1196C512.343 1196 511.683 1196 511.003 1196C511.003 1195.34 511.003 1194.67 511.003 1194C510.343 1194 509.683 1194 509.003 1194C507.993 1191.58 507.063 1189.32 506.563 1186.74C506.373 1186.17 506.193 1185.59 506.003 1185C505.013 1184.67 504.023 1184.34 503.003 1184C501.233 1180.87 500.193 1177.38 499.003 1174C498.363 1172.19 498.363 1172.19 497.703 1170.35C490.303 1149.13 490.853 1127.91 490.873 1105.66C490.873 1103.13 490.873 1100.6 490.873 1098.06C490.863 1092.58 490.862 1087.1 490.862 1081.62C490.872 1073.47 490.872 1065.33 490.862 1057.18C490.862 1042.62 490.862 1028.06 490.862 1013.5C490.862 1000.75 490.862 988.015 490.862 975.275C490.862 974.425 490.862 973.575 490.862 972.705C490.862 969.265 490.862 965.825 490.862 962.385C490.862 930.165 490.863 897.935 490.873 865.705C490.873 837.115 490.873 808.515 490.873 779.925C490.863 747.755 490.862 715.595 490.862 683.435C490.862 679.995 490.862 676.565 490.862 673.135C490.862 672.285 490.862 671.445 490.862 670.575C490.872 657.845 490.862 645.115 490.862 632.385C490.862 617.895 490.862 603.405 490.862 588.925C490.872 580.825 490.872 572.735 490.862 564.645C490.862 558.575 490.863 552.515 490.873 546.455C490.873 544.015 490.873 541.575 490.873 539.145C490.863 527.895 490.923 516.675 491.413 505.435C491.453 504.605 491.482 503.785 491.522 502.925C492.502 483.495 492.503 483.495 496.003 480.005C496.103 479.035 496.203 478.065 496.313 477.065C496.973 472.035 499.033 467.635 501.003 463.005C501.753 461.125 502.503 459.255 503.253 457.375C503.833 455.915 504.413 454.455 505.003 453.005C505.663 453.005 506.323 453.005 507.003 453.005C507.183 451.915 507.183 451.915 507.373 450.815C507.993 448.045 508.883 445.605 510.003 443.005C510.663 443.005 511.323 443.005 512.003 443.005C512.083 442.275 512.163 441.555 512.253 440.815C513.163 437.385 514.703 435.685 517.003 433.005C517.683 431.965 518.363 430.935 519.063 429.875C520.623 427.555 522.063 425.945 524.003 424.005C524.403 423.265 524.803 422.535 525.223 421.785C527.393 418.375 529.983 415.795 532.873 413.005C533.393 412.495 533.913 411.985 534.443 411.465C535.473 410.455 536.503 409.445 537.533 408.435C539.703 406.305 541.853 404.155 544.003 402.005C544.873 401.145 545.742 400.285 546.642 399.395C547.502 398.545 548.363 397.695 549.253 396.815C550.123 395.955 550.992 395.095 551.892 394.205C554.032 392.185 554.033 392.185 555.003 390.005C555.703 389.775 556.402 389.545 557.122 389.315C560.012 387.995 561.232 386.885 563.372 384.625C566.672 381.165 569.793 379.255 574.003 377.005C575.283 376.095 576.553 375.185 577.812 374.245C581.003 372.005 581.003 372.005 583.003 372.005C583.003 371.345 583.003 370.685 583.003 370.005C584.333 369.385 584.333 369.385 585.693 368.745C589.013 367.125 589.012 367.125 591.622 364.875C593.882 363.095 595.203 362.415 598.003 362.005C598.003 361.345 598.003 360.685 598.003 360.005C599.613 358.735 599.612 358.735 601.872 357.315C608.482 353.045 614.943 348.595 621.193 343.815C623.683 341.905 626.182 340.265 628.932 338.745C632.062 337.345 632.063 337.345 633.003 335.005C635.003 334.005 637.003 333.005 639.003 332.005C640.263 331.125 641.513 330.225 642.753 329.315C646.003 327.005 646.003 327.005 648.003 327.005C648.003 326.345 648.003 325.685 648.003 325.005C649.053 324.425 650.103 323.845 651.193 323.245C653.613 321.875 655.573 320.535 657.753 318.745C660.003 317.005 660.003 317.005 663.003 317.005C663.003 316.345 663.003 315.685 663.003 315.005C664.683 313.705 664.683 313.705 667.003 312.245C674.703 307.355 674.702 307.355 681.572 301.385C683.472 299.545 685.563 298.975 688.003 298.005C688.473 297.525 688.952 297.055 689.432 296.565C691.622 294.375 694.253 293.375 697.003 292.005C697.333 291.345 697.663 290.685 698.003 290.005C698.823 289.605 699.653 289.215 700.503 288.815C704.383 286.805 707.502 284.355 710.902 281.635C713.162 279.875 715.543 278.465 718.003 277.005C719.473 275.755 720.932 274.505 722.402 273.255C724.562 271.555 726.882 270.275 729.292 268.955C736.842 264.735 743.992 259.355 750.812 254.065C756.832 249.495 763.813 244.395 771.003 242.005C771.003 241.345 771.003 240.685 771.003 240.005C772.453 239.315 772.452 239.315 773.932 238.625C777.072 237.345 777.073 237.345 778.003 235.005C780.003 234.005 782.003 233.005 784.003 232.005C785.263 231.125 786.513 230.225 787.753 229.315C791.003 227.005 791.003 227.005 793.003 227.005C793.003 226.345 793.003 225.685 793.003 225.005C793.883 224.585 794.773 224.175 795.693 223.745C799.013 222.125 799.012 222.125 801.622 219.875C803.882 218.095 805.203 217.415 808.003 217.005C808.003 216.345 808.003 215.685 808.003 215.005C809.613 213.735 809.612 213.735 811.872 212.315C816.212 209.525 820.433 206.605 824.643 203.615C826.223 202.535 827.833 201.505 829.473 200.525C833.043 198.375 836.343 195.885 839.693 193.425C842.003 192.005 842.003 192.005 845.003 192.005C845.003 191.345 845.003 190.685 845.003 190.005C846.793 188.635 846.793 188.635 849.193 187.125C851.783 185.475 854.082 183.925 856.372 181.875C860.512 178.925 865.203 177.585 870.003 176.005C870.903 175.635 871.803 175.275 872.733 174.905C877.133 173.685 881.262 173.635 885.812 173.625ZM1178 296.005C1178 297.985 1178 299.955 1178 302.005C1178.33 302.005 1178.66 302.005 1179 302.005C1179 300.015 1179 298.045 1179 296.005C1178.67 296.005 1178.34 296.005 1178 296.005ZM922.003 323.005C921.343 324.315 920.683 325.635 920.003 327.005C920.663 327.005 921.323 327.005 922.003 327.005C922.663 325.685 923.323 324.365 924.003 323.005C923.343 323.005 922.683 323.005 922.003 323.005ZM915.003 330.005C915.333 330.655 915.663 331.315 916.003 332.005C916.333 331.345 916.663 330.685 917.003 330.005C916.343 330.005 915.683 330.005 915.003 330.005ZM744.003 378.005C744.333 378.655 744.663 379.315 745.003 380.005C745.663 379.345 746.323 378.685 747.003 378.005C746.013 378.005 745.023 378.005 744.003 378.005ZM712.003 400.005C712.333 400.655 712.663 401.315 713.003 402.005C713.663 401.345 714.323 400.685 715.003 400.005C714.013 400.005 713.023 400.005 712.003 400.005ZM625.003 460.005C625.333 460.665 625.663 461.315 626.003 462.005C626.663 461.335 627.323 460.685 628.003 460.005C627.013 460.005 626.023 460.005 625.003 460.005ZM620.003 465.005C620.333 465.665 620.663 466.315 621.003 467.005C621.333 466.335 621.663 465.685 622.003 465.005C621.343 465.005 620.683 465.005 620.003 465.005ZM607.003 475.005C607.333 475.665 607.663 476.315 608.003 477.005C608.333 476.335 608.663 475.685 609.003 475.005C608.343 475.005 607.683 475.005 607.003 475.005ZM605.003 477.005C605.333 477.995 605.663 478.985 606.003 480.005C606.333 479.005 606.663 478.015 607.003 477.005C606.343 477.005 605.683 477.005 605.003 477.005ZM591.003 508.005C591.003 516.575 591.003 525.165 591.003 534.005C591.333 534.005 591.663 534.005 592.003 534.005C592.003 525.425 592.003 516.835 592.003 508.005C591.673 508.005 591.343 508.005 591.003 508.005ZM1079 534.005C1076.35 535.825 1076.35 535.825 1073.62 538.315C1069.27 542.125 1065.95 545.005 1060 545.005C1060 545.665 1060 546.315 1060 547.005C1059.34 547.005 1058.68 547.005 1058 547.005C1058 547.995 1058 548.985 1058 550.005C1056.42 551.825 1056.42 551.825 1054.31 553.685C1053.63 554.315 1052.94 554.935 1052.24 555.575C1049.6 557.255 1048.07 557.285 1045 557.005C1044.9 557.595 1044.8 558.195 1044.7 558.805C1043.46 562.665 1040.19 564.685 1037 567.005C1035 568.005 1033 569.005 1031 570.005C1029.29 571.625 1027.62 573.295 1026 575.005C1022.37 578.345 1019.93 579.545 1015 580.005C1015 580.655 1015 581.315 1015 582.005C1014.34 582.005 1013.68 582.005 1013 582.005C1013 582.995 1013 583.985 1013 585.005C1010.87 587.055 1010.87 587.055 1008 589.315C1006.5 590.505 1006.5 590.505 1004.97 591.715C1001.89 594.085 998.802 596.435 995.652 598.715C993.952 599.975 993.952 599.975 992.432 601.605C991.002 603.005 991.002 603.005 988.622 603.875C985.282 605.305 983.493 607.385 981.003 610.005C979.343 611.345 977.683 612.685 976.003 614.005C974.833 615.015 973.663 616.035 972.503 617.065C970.543 618.755 968.793 620.125 966.562 621.435C963.362 623.385 960.772 625.795 957.992 628.295C956.272 629.765 954.583 631.025 952.693 632.245C950.073 633.815 950.073 633.815 948.503 635.565C947.003 637.005 947.003 637.005 944.062 638.375C940.852 639.805 940.852 639.805 938.932 642.685C937.002 645.005 937.003 645.005 934.253 645.315C933.503 645.205 932.763 645.105 932.003 645.005C932.333 646.315 932.663 647.635 933.003 649.005C932.163 649.095 932.163 649.095 931.312 649.185C928.053 650.335 926.393 652.545 924.003 655.005C922.343 656.015 920.673 657.015 919.003 658.005C912.983 662.085 907.383 666.205 902.533 671.655C900.723 673.245 899.323 673.465 897.003 674.005C895.313 675.645 893.653 677.315 892.003 679.005C890.683 680.025 889.353 681.015 888.003 682.005C885.533 683.805 883.493 685.505 881.312 687.685C878.983 690.015 876.843 691.345 874.003 693.005C872.683 694.035 871.372 695.075 870.062 696.125C866.652 698.745 864.253 699.335 860.003 700.005C857.063 702.185 857.063 702.185 855.003 705.005C855.003 706.315 855.003 707.635 855.003 709.005C854.453 709.255 853.913 709.505 853.353 709.755C850.533 711.245 848.022 713.005 845.432 714.875C844.482 715.555 843.533 716.235 842.562 716.925C838.463 720.125 838.463 720.125 836.753 724.865C836.673 727.275 836.693 729.665 836.753 732.085C836.763 733.005 836.773 733.915 836.783 734.865C836.813 737.895 836.873 740.925 836.923 743.955C836.953 746.055 836.983 748.155 837.003 750.255C837.073 755.785 837.163 761.315 837.263 766.845C837.353 772.495 837.423 778.135 837.503 783.785C837.653 794.855 837.823 805.925 838.003 817.005C838.663 817.005 839.323 817.005 840.003 817.005C840.003 816.335 840.003 815.685 840.003 815.005C840.663 814.815 841.323 814.625 842.003 814.435C845.593 812.715 848.113 810.435 851.033 807.755C853.703 805.365 856.393 803.345 859.503 801.565C862.053 800.095 862.053 800.095 864.003 798.005C866.003 796.005 866.003 796.005 868.312 794.685C870.812 793.115 872.412 791.625 874.432 789.505C877.392 786.445 880.133 784.805 884.003 783.005C886.763 780.835 889.363 778.565 891.983 776.225C895.533 773.065 898.893 770.405 903.003 768.005C909.483 763.245 916.012 758.185 921.562 752.355C923.003 751.005 923.003 751.005 925.562 750.065C928.142 749.245 928.143 749.245 929.003 747.005C930.003 745.005 930.002 745.005 932.122 744.185C935.062 742.975 936.552 741.745 938.872 739.625C941.352 737.365 943.652 735.495 946.622 733.935C949.942 732.035 952.013 730.115 954.603 727.375C956.513 725.495 958.693 724.325 961.003 723.005C962.453 721.805 963.902 720.615 965.332 719.395C967.192 717.835 969.112 716.385 971.062 714.935C974.753 712.185 978.412 709.435 981.832 706.335C984.962 703.515 987.892 700.915 991.622 698.935C994.942 697.035 997.013 695.115 999.603 692.375C1001.51 690.495 1003.69 689.325 1006 688.005C1007.45 686.805 1008.9 685.615 1010.33 684.395C1012.85 682.295 1015.5 680.355 1018.13 678.395C1020.46 676.655 1022.73 674.825 1025 673.005C1026.41 671.895 1027.83 670.785 1029.25 669.685C1030.02 669.085 1030.79 668.485 1031.58 667.865C1033.21 666.605 1034.85 665.365 1036.51 664.135C1037.71 663.235 1037.71 663.235 1038.93 662.315C1039.67 661.775 1040.4 661.235 1041.15 660.675C1043.1 658.905 1043.86 657.335 1045 655.005C1045.72 654.875 1046.44 654.755 1047.19 654.625C1050.87 653.805 1052.65 651.915 1055.35 649.375C1057 648.005 1057 648.005 1060 647.005C1060 646.345 1060 645.685 1060 645.005C1060.55 644.755 1061.11 644.505 1061.69 644.245C1065.04 642.435 1067.8 640.045 1070.66 637.545C1071.25 637.035 1071.83 636.525 1072.43 636.005C1072.97 635.525 1073.5 635.055 1074.06 634.565C1076 633.005 1076 633.005 1079.08 631.475C1082.07 629.405 1082.07 629.405 1082.54 627.135C1082.74 624.715 1082.74 622.345 1082.68 619.915C1082.68 618.995 1082.68 618.085 1082.68 617.135C1082.68 614.105 1082.63 611.075 1082.58 608.045C1082.57 605.945 1082.56 603.845 1082.56 601.745C1082.53 596.215 1082.48 590.685 1082.41 585.155C1082.35 579.505 1082.32 573.865 1082.29 568.215C1082.23 557.145 1082.12 546.075 1082 535.005C1081.01 534.675 1080.02 534.335 1079 534.005ZM992.003 598.005C993.003 600.005 993.003 600.005 993.003 600.005L992.003 598.005ZM990.003 600.005C990.333 600.665 990.663 601.315 991.003 602.005C991.333 601.335 991.663 600.685 992.003 600.005C991.343 600.005 990.683 600.005 990.003 600.005ZM970.003 615.005C971.003 617.005 971.003 617.005 971.003 617.005L970.003 615.005ZM968.003 617.005C968.333 617.995 968.663 618.985 969.003 620.005C969.333 619.005 969.663 618.015 970.003 617.005C969.343 617.005 968.683 617.005 968.003 617.005ZM947.003 633.005C948.003 635.005 948.003 635.005 948.003 635.005L947.003 633.005ZM945.003 635.005C945.333 635.665 945.663 636.315 946.003 637.005C946.333 636.335 946.663 635.685 947.003 635.005C946.343 635.005 945.683 635.005 945.003 635.005ZM925.003 650.005C926.003 653.005 926.003 653.005 926.003 653.005L925.003 650.005ZM912.003 660.005C912.333 660.665 912.663 661.315 913.003 662.005C913.663 661.335 914.323 660.685 915.003 660.005C914.013 660.005 913.023 660.005 912.003 660.005ZM905.003 665.005C905.333 665.665 905.663 666.315 906.003 667.005C906.663 666.335 907.323 665.685 908.003 665.005C907.013 665.005 906.023 665.005 905.003 665.005ZM903.003 667.005C903.333 667.665 903.663 668.315 904.003 669.005C904.333 668.335 904.663 667.685 905.003 667.005C904.343 667.005 903.683 667.005 903.003 667.005ZM880.003 685.005C880.333 685.665 880.663 686.325 881.003 687.005C881.333 686.345 881.663 685.685 882.003 685.005C881.343 685.005 880.683 685.005 880.003 685.005ZM878.003 687.005C878.333 687.995 878.663 688.985 879.003 690.005C879.333 689.005 879.663 688.015 880.003 687.005C879.343 687.005 878.683 687.005 878.003 687.005ZM867.003 695.005C867.333 695.655 867.663 696.325 868.003 697.005C868.663 696.345 869.323 695.675 870.003 695.005C869.013 695.005 868.023 695.005 867.003 695.005ZM837.003 718.005C837.333 718.655 837.663 719.325 838.003 720.005C838.663 719.345 839.323 718.675 840.003 718.005C839.013 718.005 838.023 718.005 837.003 718.005ZM836.003 723.005C836.003 754.015 836.003 785.035 836.003 817.005C836.333 817.005 836.663 817.005 837.003 817.005C837.003 785.985 837.003 754.965 837.003 723.005C836.673 723.005 836.343 723.005 836.003 723.005ZM1167 980.005C1165.28 981.955 1163.61 983.955 1162 986.005C1162.99 986.495 1162.99 986.495 1164 987.005C1165.65 984.695 1167.3 982.375 1169 980.005C1168.34 980.005 1167.68 980.005 1167 980.005ZM1160 987.005C1160.33 987.655 1160.66 988.325 1161 989.005C1161.33 988.345 1161.66 987.675 1162 987.005C1161.34 987.005 1160.68 987.005 1160 987.005ZM1125 1015C1125.33 1015.65 1125.66 1016.32 1126 1017C1126.66 1016.34 1127.32 1015.67 1128 1015C1127.01 1015 1126.02 1015 1125 1015ZM1107 1028C1107.33 1028.65 1107.66 1029.32 1108 1030C1108.66 1029.34 1109.32 1028.67 1110 1028C1109.01 1028 1108.02 1028 1107 1028ZM1105 1030C1105.33 1030.65 1105.66 1031.32 1106 1032C1106.33 1031.34 1106.66 1030.67 1107 1030C1106.34 1030 1105.68 1030 1105 1030ZM1103 1032C1103.33 1032.65 1103.66 1033.32 1104 1034C1104.33 1033.34 1104.66 1032.67 1105 1032C1104.34 1032 1103.68 1032 1103 1032ZM1092 1040C1092.33 1040.65 1092.66 1041.32 1093 1042C1093.66 1041.34 1094.32 1040.67 1095 1040C1094.01 1040 1093.02 1040 1092 1040ZM1060 1065C1060.33 1065.65 1060.66 1066.32 1061 1067C1061.66 1066.34 1062.32 1065.67 1063 1065C1062.01 1065 1061.02 1065 1060 1065ZM997.003 1113C997.333 1113.65 997.663 1114.32 998.003 1115C998.663 1114.34 999.323 1113.67 1000 1113C999.013 1113 998.023 1113 997.003 1113ZM995.003 1115C995.333 1115.65 995.663 1116.32 996.003 1117C996.333 1116.34 996.663 1115.67 997.003 1115C996.343 1115 995.683 1115 995.003 1115ZM984.003 1123C984.333 1123.65 984.663 1124.32 985.003 1125C985.663 1124.34 986.323 1123.67 987.003 1123C986.013 1123 985.023 1123 984.003 1123ZM975.003 1130C975.333 1130.65 975.663 1131.32 976.003 1132C976.663 1131.34 977.323 1130.67 978.003 1130C977.013 1130 976.023 1130 975.003 1130ZM964.003 1138C964.333 1138.65 964.663 1139.32 965.003 1140C965.663 1139.34 966.323 1138.67 967.003 1138C966.013 1138 965.023 1138 964.003 1138ZM955.003 1145C955.333 1145.65 955.663 1146.32 956.003 1147C956.663 1146.34 957.323 1145.67 958.003 1145C957.013 1145 956.023 1145 955.003 1145ZM895.003 1190C895.333 1190.65 895.663 1191.32 896.003 1192C896.333 1191.34 896.663 1190.67 897.003 1190C896.343 1190 895.683 1190 895.003 1190ZM884.003 1198.01C885.003 1200.01 885.003 1200.01 885.003 1200.01L884.003 1198.01Z" fill="#302F31"/>
<path d="M479 -1.2964e-05C482.62 -0.120013 486.25 -0.190013 489.88 -0.250013C490.89 -0.280013 491.9 -0.320013 492.95 -0.350013C499.37 -0.430013 504.2 0.419987 510.04 3.12999C511.95 4.12999 511.95 4.12999 514 3.99999C514 4.65999 514 5.31999 514 5.99999C514.58 6.26999 515.16 6.53999 515.75 6.81999C523.26 10.75 529.91 16.56 534 24C534.8 25.33 534.8 25.33 535.62 26.69C537.96 30.62 538.28 33.49 538.62 38C538.75 38.66 538.87 39.32 539 40C539.66 40.33 540.32 40.66 541 41C541.02 52.72 541.04 64.43 541.05 76.15C541.06 81.59 541.06 87.03 541.08 92.47C541.09 97.72 541.09 102.96 541.09 108.21C541.1 110.21 541.1 112.22 541.11 114.23C541.11 117.03 541.11 119.83 541.11 122.62C541.12 123.46 541.12 124.3 541.12 125.16C541.11 130.89 541.11 130.89 540 132C539.63 134.33 539.3 136.66 539 139C538.34 139 537.68 139 537 139C536.86 139.57 536.73 140.14 536.59 140.72C535.02 146.34 532.98 149.61 528.62 153.49C526.76 155.1 526.76 155.1 525 158C524.34 158 523.68 158 523 158C522.67 158.99 522.34 159.98 522 161C519.89 162.32 519.89 162.32 517.25 163.56C515.96 164.18 515.96 164.18 514.64 164.82C513.77 165.21 512.9 165.6 512 166C511.26 166.35 510.51 166.7 509.75 167.06C506.5 168.17 503.85 168.26 500.41 168.27C498.52 168.27 498.52 168.27 496.59 168.27C495.28 168.27 493.97 168.26 492.62 168.25C491.32 168.26 490.02 168.27 488.68 168.27C487.42 168.27 486.15 168.27 484.85 168.27C483.71 168.26 482.56 168.26 481.38 168.26C477.63 167.97 474.57 167.14 471 166C471 165.34 471 164.68 471 164C470.26 163.91 469.52 163.81 468.76 163.72C465.58 162.89 464.23 161.75 461.88 159.5C459.45 157.19 458.22 156.07 455 155C451 149.74 451 149.74 451 146C450.34 145.67 449.68 145.34 449 145C448.34 144.01 447.68 143.02 447 142C442.17 141.34 439.11 142.5 435 145C434.3 145.72 433.6 146.44 432.88 147.19C431 149 431 149 427 149C426.67 149.99 426.34 150.98 426 152C424.01 153.02 422.01 154.02 420 155C419.3 155.72 418.6 156.44 417.88 157.19C416 159 416 159 412 159C411.64 159.92 411.64 159.92 411.28 160.86C409.67 163.54 408.35 164.07 405.5 165.31C399.86 167.95 395.03 171.36 390 175C388.84 175.78 387.67 176.55 386.5 177.31C383.96 178.91 383.96 178.91 382 181C381.2 181.31 380.39 181.62 379.56 181.94C377.01 182.79 377.01 182.79 375.62 184.45C373.72 186.27 372.01 186.98 369.56 187.94C365.9 189.47 363.77 191.13 361 194C359.68 194 358.36 194 357 194C356.67 194.99 356.34 195.98 356 197C354.22 198.32 354.22 198.32 352.06 199.56C349.69 200.94 347.95 202.05 346 204C344.72 204.5 343.43 204.96 342.12 205.38C338.53 206.66 336.59 208.15 334 211C332.35 212.03 330.68 213.03 329 214C327.6 214.95 326.21 215.91 324.81 216.88C320.76 219.61 316.57 221.73 312.16 223.83C309.65 225.19 307.97 226.96 306 229C304.68 229 303.36 229 302 229C301.77 229.61 301.54 230.21 301.3 230.84C299.63 233.61 298.06 234.24 295.12 235.56C291.75 237.1 288.92 238.7 286 241C284.34 242.02 282.68 243.02 281 244C280.2 244.5 279.39 244.99 278.56 245.5C276 247 276 247 272.88 248.5C270.04 249.78 270.04 249.78 268.44 251.62C267 253 267 253 264.44 253.44C263.63 253.62 262.83 253.81 262 254C261.72 254.62 261.44 255.24 261.15 255.88C259.62 258.7 258.03 259.26 255.12 260.56C251.75 262.1 248.91 263.7 246 266C242.49 268.37 241.37 269 237 269C236.67 269.99 236.34 270.98 236 272C234.01 273.02 232.01 274.02 230 275C229.3 275.7 228.6 276.4 227.88 277.12C225.81 279.19 224.75 279.36 222 280C221.34 280.99 220.68 281.98 220 283C218.34 283.37 216.67 283.71 215 284C214.34 284.66 213.68 285.32 213 286C213.66 286.33 214.32 286.66 215 287C214.22 287.72 213.43 288.44 212.62 289.19C210.09 291.9 209.12 293.54 208 297C207.33 298.67 206.67 300.33 206 302C205.34 302 204.68 302 204 302C203.9 302.66 203.79 303.32 203.69 304C203 307 203 307 201.5 310.69C199.93 314.7 199.49 318.52 199.21 322.8C199 325 199 325 198 328C197.95 329.94 197.95 329.94 198.12 332.01C198.17 332.77 198.22 333.53 198.27 334.31C198.32 335.09 198.38 335.88 198.44 336.69C198.49 337.48 198.54 338.28 198.6 339.1C198.73 341.07 198.86 343.03 199 345C199.33 345 199.66 345 200 345C200.09 345.94 200.17 346.88 200.26 347.85C201.34 357.53 201.34 357.53 207 365C207.5 366.49 207.5 366.49 208 368C210.68 369.09 210.68 369.09 214 370C215.08 370.51 216.17 371.02 217.28 371.55C223.59 373.93 230.29 373.35 236.94 373.25C238.29 373.24 239.64 373.24 240.99 373.23C246.88 373.76 246.88 373.76 252 372C253.37 371.81 254.75 371.68 256.12 371.56C260.9 371.08 265.54 370.32 269.82 368.03C273.44 366.32 277.33 365.67 281.22 364.78C284.18 364.1 284.18 364.1 287 362C290.19 361.88 290.19 361.88 293 362C293 361.34 293 360.68 293 360C295.85 358.84 298.7 357.75 301.59 356.7C306.39 354.91 311 352.76 315.62 350.56C316.44 350.18 317.26 349.8 318.11 349.4C321.72 347.7 325.17 345.98 328.46 343.71C331 342 331 342 333 342C333 341.34 333 340.68 333 340C336.32 338.58 339.44 337.61 343 337C343 336.34 343 335.68 343 335C343.82 334.61 344.65 334.22 345.5 333.81C352.75 330.51 352.75 330.51 358 325C359.98 323.96 361.98 322.97 364 322C367.43 320.02 370.66 317.87 373.88 315.56C377.82 312.78 381.79 310.35 386 308C390.23 305.29 390.23 305.29 394 302C395.32 302 396.64 302 398 302C398 301.34 398 300.68 398 300C399.55 299.13 399.55 299.13 401.12 298.25C403.6 296.84 405.97 295.37 408.31 293.75C411 292 411 292 413 292C413 291.34 413 290.68 413 290C413.87 289.59 414.73 289.18 415.62 288.75C419.05 287.05 419.05 287.05 422.25 284.81C425 283 425 283 427 283C427.33 282.01 427.66 281.02 428 280C429.64 279.28 431.31 278.62 433 278C434.53 277.06 436.03 276.08 437.5 275.06C440.61 272.92 443.76 270.93 447 269C449.39 267.52 451.76 266.01 454.12 264.5C454.75 264.11 455.37 263.72 456 263.32C458.97 261.42 461.57 259.55 464 257C465.71 256 467.42 255 469.16 254.04C471.87 252.51 474.43 250.75 477 249C480 247 480 247 483 247C483 246.34 483 245.68 483 245C484.86 243.56 484.86 243.56 487.31 242C488.11 241.48 488.91 240.97 489.74 240.44C490.48 239.96 491.23 239.49 492 239C493.49 238.01 493.49 238.01 495 237C495.99 237 496.98 237 498 237C498 236.34 498 235.68 498 235C500.1 233.53 502.18 232.19 504.38 230.88C504.98 230.5 505.58 230.13 506.2 229.75C510.73 227 510.73 227 513 227C513 226.34 513 225.68 513 225C513.85 224.61 514.69 224.22 515.56 223.81C518.2 222.42 520.38 221.06 522.75 219.31C526 217 526 217 528 217C528 216.34 528 215.68 528 215C528.83 214.61 529.65 214.22 530.5 213.81C537.75 210.51 537.75 210.51 543 205C544.99 203.98 546.99 202.99 549 202C550.45 201.16 551.89 200.31 553.31 199.44C553.99 199.02 554.67 198.61 555.36 198.18C557.15 197.08 557.15 197.08 558 195C559.99 193.98 561.99 192.99 564 192C565.45 191.16 566.89 190.31 568.31 189.44C568.99 189.02 569.67 188.61 570.36 188.18C572.15 187.08 572.15 187.08 573 185C574.99 183.98 576.99 182.99 579 182C580.45 181.16 581.89 180.31 583.31 179.44C583.99 179.02 584.67 178.61 585.36 178.18C587.15 177.08 587.15 177.08 588 175C590 174 592 173 594 172C597.68 169.67 601.26 167.21 604.84 164.72C608.8 162 608.8 162 611 162C611 161.34 611 160.68 611 160C611.97 159.55 612.94 159.09 613.94 158.62C617.07 157.34 617.07 157.34 618 155C618.78 154.69 619.57 154.38 620.38 154.06C622.98 153.21 622.98 153.21 624.44 151.56C626.62 149.38 629.25 148.37 632 147C632.33 146.34 632.66 145.68 633 145C633.78 144.69 634.57 144.38 635.38 144.06C637.98 143.21 637.98 143.21 639.42 141.55C641.15 139.85 642.68 139.06 644.88 138.06C648.33 136.41 651.03 134.44 654 132C655.7 131.04 657.4 130.08 659.11 129.13C661.19 127.88 663.08 126.48 665 125C669.51 121.55 674.26 117.92 680 117C680 116.34 680 115.68 680 115C682.2 113.41 682.2 113.41 685.12 111.62C686.14 111 687.15 110.37 688.19 109.73C689.12 109.16 690.05 108.59 691 108C693.75 106.21 696.46 104.4 699.09 102.45C708.24 95.76 718.56 89.41 730 88C731.42 87.75 731.42 87.75 732.88 87.5C742.52 86.18 750.09 88.66 759 92C760.39 92.5 760.39 92.5 761.81 93.02C764.88 94.4 766.69 96.58 769 99C769.83 99.64 770.65 100.28 771.5 100.94C774.52 103.43 776.69 105.83 779 109C779 110.32 779 111.64 779 113C779.93 113.28 779.93 113.28 780.88 113.56C784.08 115.73 784.14 118.31 785 122C785.66 124 786.32 126 787 128C787.33 128 787.66 128 788 128C788 133 788 138 788 143C787.34 143.33 786.68 143.66 786 144C786 148.95 786 153.9 786 159C785.34 159 784.68 159 784 159C783.88 159.72 783.76 160.44 783.64 161.18C782.98 164.08 782.04 166.45 780.75 169.12C780.35 169.97 779.96 170.82 779.55 171.7C777.69 174.47 775.87 175.32 773 177C770.32 179.48 767.85 182.2 765.37 184.88C763.99 186.33 762.5 187.67 761 189C759.68 189 758.36 189 757 189C756.67 189.99 756.34 190.98 756 192C754.03 193.05 752.02 194.05 750 195C748.93 195.72 747.86 196.44 746.75 197.19C744 199 744 199 742 199C741.67 199.99 741.34 200.98 741 202C739.03 203.05 737.02 204.05 735 205C733.93 205.72 732.86 206.44 731.75 207.19C729 209 729 209 727 209C726.67 209.99 726.34 210.98 726 212C724.02 213.03 722.02 214.03 720 215C719.23 215.8 719.23 215.8 718.44 216.62C716.47 218.51 714.64 218.64 712 219C711.67 219.99 711.34 220.98 711 222C709.02 223.03 707.02 224.03 705 225C704.23 225.8 704.23 225.8 703.44 226.62C701.47 228.51 699.64 228.64 697 229C696.67 229.99 696.34 230.98 696 232C694.01 233.02 692.01 234.02 690 235C689.3 235.72 688.6 236.44 687.88 237.19C686 239 686 239 682 239C681.67 239.99 681.34 240.98 681 242C679.01 243.02 677.01 244.02 675 245C674.3 245.72 673.6 246.44 672.88 247.19C671 249 671 249 667 249C666.79 249.6 666.59 250.2 666.38 250.81C664.49 253.81 662.17 254.51 659 256C658.2 256.84 658.2 256.84 657.38 257.69C656 259 656 259 652 259C651.79 259.6 651.59 260.2 651.38 260.81C649.49 263.81 647.17 264.51 644 266C643.2 266.84 643.2 266.84 642.38 267.69C641 269 641 269 637 269C636.79 269.6 636.59 270.2 636.38 270.81C634.49 273.81 632.17 274.51 629 276C628.46 276.54 627.93 277.07 627.38 277.62C625.66 279.34 624.33 279.49 622 280C618.96 281.67 618.96 281.67 618 284C616.34 285.02 614.68 286.02 613 287C612.34 287.66 611.68 288.32 611 289C609.68 289 608.36 289 607 289C607 289.66 607 290.32 607 291C606.01 291.33 605.02 291.66 604 292C603.67 292.66 603.34 293.32 603 294C600.75 295.46 598.51 296.77 596.06 297.88C593.76 299.03 593.76 299.03 591.25 301.38C588.34 303.89 585.28 305.46 581.82 307.1C579.66 308.17 577.88 309.51 576 311C575.26 311.43 574.51 311.87 573.75 312.31C571.38 313.77 569.26 315.3 567.06 317C563.86 319.45 560.63 321.23 557 323C555.98 323.98 554.98 324.98 554 326C552.35 327.02 550.68 328.02 549 329C543 332.75 543 332.75 537.69 337.38C536 339 536 339 532 339C531.77 339.59 531.54 340.18 531.3 340.78C529.68 343.55 527.91 344.73 525.25 346.5C523.9 347.41 523.9 347.41 522.52 348.35C520.67 349.56 518.81 350.75 516.94 351.94C512.65 354.95 508.86 358.47 505 362C504.67 361.01 504.34 360.02 504 359C503.34 359.99 502.68 360.98 502 362C501.34 362 500.68 362 500 362C500.23 362.58 500.47 363.17 500.71 363.77C501 366 501 366 499.68 367.84C499.01 368.46 498.35 369.08 497.67 369.71C496.95 370.4 496.24 371.09 495.5 371.79C494.35 372.86 494.35 372.86 493.19 373.94C491.69 375.34 490.21 376.74 488.73 378.15C488.06 378.77 487.4 379.39 486.71 380.03C484.8 382.23 483.99 384.27 483 387C482 388 481 389 480 390C479.5 390.99 479.01 391.98 478.5 393C477.15 395.69 476.11 396.98 474 399C473.33 400.33 472.66 401.66 472 403C471.2 404.26 470.39 405.51 469.56 406.75C467.06 410.7 465.54 414.59 464 419C463.63 419.7 463.26 420.4 462.88 421.12C461.68 423.68 461.38 426.22 461 429C460.34 429 459.68 429 459 429C458.86 429.8 458.71 430.61 458.56 431.44C458 434 458 434 457 435C456.86 436.03 456.71 437.06 456.56 438.12C455.92 442.54 455.16 446.91 452.97 450.85C451.76 453.52 451.58 455.83 451.38 458.75C451.26 460.23 451.26 460.23 451.15 461.73C451.1 462.48 451.05 463.23 451 464C450.34 464 449.68 464 449 464C449.03 464.94 449.03 464.94 449.07 465.9C449.09 466.72 449.11 467.53 449.12 468.38C449.15 469.19 449.17 470 449.2 470.84C449 473 449 473 447 475C446.65 477.31 446.65 477.31 446.62 479.97C446.59 480.95 446.55 481.94 446.52 482.95C446.49 483.98 446.46 485 446.44 486.06C446.38 488.1 446.31 490.13 446.25 492.16C446.21 493.52 446.21 493.52 446.17 494.9C446 497 446 497 445 498C443.57 508.19 443.69 518.63 443.45 528.91C443.4 531.05 443.34 533.19 443.28 535.32C443.25 536.58 443.22 537.84 443.19 539.14C443 542 443 542 442 543C441.9 545.59 441.86 548.15 441.86 550.74C441.86 551.57 441.86 552.39 441.86 553.24C441.85 556.04 441.85 558.84 441.85 561.64C441.84 563.65 441.84 565.67 441.84 567.68C441.82 573.24 441.82 578.8 441.81 584.36C441.81 590.34 441.8 596.33 441.79 602.31C441.77 612.69 441.75 623.07 441.74 633.45C441.72 648.46 441.7 663.47 441.67 678.47C441.66 685.46 441.65 692.44 441.63 699.43C441.63 700.13 441.63 700.83 441.63 701.55C441.6 718.2 441.58 734.86 441.55 751.52C441.55 752.25 441.55 752.97 441.55 753.73C441.53 764.82 441.52 775.91 441.5 787C441.48 798.83 441.47 810.66 441.45 822.48C441.45 823.21 441.45 823.94 441.44 824.69C441.42 841.32 441.39 857.94 441.37 874.57C441.36 875.27 441.36 875.97 441.36 876.69C441.35 883.66 441.34 890.63 441.33 897.59C441.3 912.59 441.28 927.58 441.26 942.57C441.24 953.5 441.23 964.43 441.21 975.36C441.2 981.28 441.19 987.21 441.18 993.14C441.18 998.55 441.17 1003.97 441.16 1009.38C441.15 1011.35 441.15 1013.32 441.15 1015.29C441.15 1017.94 441.14 1020.6 441.14 1023.26C441.14 1024.43 441.14 1024.43 441.14 1025.62C441.11 1030.89 441.11 1030.89 440 1032C439.63 1034.33 439.3 1036.66 439 1039C438.34 1039 437.68 1039 437 1039C436.77 1040.22 436.55 1041.43 436.31 1042.69C433.6 1050.85 425.68 1058.55 418.14 1062.5C415.69 1063.31 415.69 1063.31 412 1064C412 1064.66 412 1065.32 412 1066C409.36 1066.33 406.72 1066.66 404 1067C404 1067.66 404 1068.32 404 1069C403.03 1069.14 402.06 1069.29 401.06 1069.44C398.14 1069.68 398.14 1069.68 397 1071C394.78 1071.28 392.56 1071.45 390.32 1071.62C387.87 1072.02 386.2 1072.88 384 1074C382 1074 380 1074 378 1074C377.34 1074.66 376.68 1075.32 376 1076C373.1 1076.34 373.1 1076.34 369.62 1076.5C365.19 1076.58 365.19 1076.58 361.12 1078.03C357.68 1079.6 354.16 1079.13 350.44 1079C344.42 1078.64 344.42 1078.64 339 1081C336.63 1081.24 336.63 1081.24 333.79 1081.23C332.73 1081.23 331.67 1081.23 330.58 1081.23C329.44 1081.22 328.29 1081.21 327.11 1081.2C325.94 1081.19 324.77 1081.19 323.56 1081.19C319.81 1081.18 316.06 1081.15 312.31 1081.12C309.77 1081.11 307.23 1081.11 304.69 1081.1C298.46 1081.08 292.23 1081.04 286 1081C286 1080.34 286 1079.68 286 1079C285.25 1078.97 284.5 1078.95 283.72 1078.92C280.33 1078.81 276.95 1078.69 273.56 1078.56C271.79 1078.5 271.79 1078.5 269.97 1078.44C268.85 1078.4 267.73 1078.36 266.57 1078.32C265.52 1078.28 264.48 1078.24 263.41 1078.21C261 1078 261 1078 260 1077C256.44 1076.71 252.89 1076.55 249.32 1076.38C246 1076 246 1076 243 1074C240.52 1073.58 240.52 1073.58 237.88 1073.44C233.1 1073.1 233.1 1073.1 232 1072C230.49 1071.77 228.96 1071.59 227.44 1071.44C226.2 1071.31 226.2 1071.31 224.93 1071.18C224.3 1071.12 223.66 1071.06 223 1071C223 1070.34 223 1069.68 223 1069C222.06 1068.94 222.06 1068.94 221.09 1068.89C216.11 1068.5 211.84 1067.82 207.23 1065.9C204.36 1064.74 201.44 1063.78 198.5 1062.81C197.46 1062.47 196.42 1062.12 195.34 1061.77C194.18 1061.39 194.18 1061.39 193 1061C193 1060.34 193 1059.68 193 1059C190.69 1059 188.38 1059 186 1059C185.67 1058.34 185.34 1057.68 185 1057C182.98 1056.35 182.98 1056.35 181 1056C181 1055.34 181 1054.68 181 1054C179.35 1054 177.7 1054 176 1054C175.67 1053.34 175.34 1052.68 175 1052C172.98 1051.35 172.98 1051.35 171 1051C171 1050.34 171 1049.68 171 1049C169.35 1049 167.7 1049 166 1049C165.67 1048.34 165.34 1047.68 165 1047C164.1 1046.81 164.1 1046.81 163.19 1046.62C160.3 1045.8 159.11 1044.11 157 1042C155.34 1041.31 153.68 1040.64 152 1040C150.98 1039.02 149.98 1038.02 149 1037C148.26 1036.59 147.51 1036.17 146.75 1035.75C144.21 1034.13 142.56 1032.6 140.5 1030.44C138.41 1028.27 137.27 1027.1 134.44 1026C129.75 1024.08 126.89 1019.51 124.38 1015.25C123.12 1012.89 123.12 1012.89 120.88 1011.44C118.61 1009.7 118.63 1008.69 118 1006C117.01 1005.67 116.02 1005.34 115 1005C115 1003.68 115 1002.36 115 1001C114.01 1000.67 113.02 1000.34 112 1000C109.15 995.75 107.58 990.83 106 986C105.34 984.54 104.68 983.08 104 981.62C102.13 977.47 100.92 973.45 99.9999 969C99.8299 968.19 99.6499 967.39 99.4699 966.56C97.6199 957.68 96.8499 949.2 96.8699 940.14C96.8699 938.53 96.8699 938.53 96.8699 936.88C96.8699 933.27 96.8699 929.65 96.8699 926.04C96.8699 923.43 96.8699 920.81 96.8699 918.2C96.8599 912.51 96.8599 906.82 96.8699 901.14C96.8699 892.68 96.8699 884.22 96.8699 875.76C96.8599 860.66 96.8599 845.56 96.8599 830.45C96.8699 817.24 96.8699 804.02 96.8699 790.8C96.8699 789.93 96.8699 789.05 96.8699 788.15C96.8699 784.59 96.8699 781.04 96.8599 777.48C96.8599 744.11 96.8599 710.74 96.8699 677.37C96.8699 647.71 96.8699 618.04 96.8699 588.38C96.8599 555.07 96.8599 521.76 96.8699 488.44C96.8699 484.89 96.8699 481.34 96.8699 477.79C96.8699 476.92 96.8699 476.05 96.8699 475.15C96.8699 461.93 96.8699 448.72 96.8599 435.51C96.8599 420.5 96.8599 405.48 96.8699 390.47C96.8699 382.06 96.8699 373.65 96.8699 365.24C96.8599 358.97 96.8699 352.7 96.8699 346.44C96.8699 343.89 96.8699 341.35 96.8699 338.81C96.8699 335.36 96.8699 331.92 96.8699 328.48C96.8699 327.48 96.8699 326.48 96.8699 325.45C96.8699 324.53 96.8699 323.61 96.8699 322.67C96.8699 321.88 96.8699 321.1 96.8699 320.28C97.0099 317.78 97.4699 315.45 97.9999 313C98.5199 309.62 99.0099 306.24 99.4999 302.86C99.9999 300 99.9999 300 101 298C101.1 296.85 101.21 295.69 101.31 294.5C101.81 290.1 103.31 286.42 105.03 282.37C106.28 279.31 107.11 276.18 108 273C111.47 262.16 116.84 252.74 122.8 243.09C124.13 240.92 124.13 240.92 125 238C125.66 238 126.32 238 127 238C127.27 237.44 127.54 236.89 127.81 236.31C130.55 230.97 133.78 226.84 137.88 222.5C138.39 221.94 138.91 221.39 139.44 220.82C144.44 215.47 149.62 210.34 155 205.38C155.76 204.66 155.76 204.66 156.54 203.93C164.05 197 164.05 197 168 197C168 196.34 168 195.68 168 195C169.24 194.41 169.24 194.41 170.5 193.81C177.75 190.51 177.75 190.51 183 185C184.66 184.32 186.33 183.65 188 183C189.53 182.06 191.03 181.08 192.5 180.06C194.95 178.38 197.38 176.77 199.94 175.25C202.12 174.04 202.12 174.04 204 172C205.32 172 206.64 172 208 172C208 171.34 208 170.68 208 170C208.89 169.57 209.77 169.13 210.69 168.69C215.35 166.31 219.62 163.61 223.88 160.56C227.22 158.2 230.55 156 234.14 154.04C237.44 152.19 240.64 150.16 243.86 148.17C246 147 246 147 248 147C248 146.34 248 145.68 248 145C248.82 144.61 249.65 144.22 250.5 143.81C257.75 140.51 257.75 140.51 263 135C264.66 134.32 266.33 133.65 268 133C269.53 132.06 271.03 131.08 272.5 130.06C274.95 128.38 277.38 126.77 279.94 125.25C282.12 124.04 282.12 124.04 284 122C285.32 122 286.64 122 288 122C288 121.34 288 120.68 288 120C290.01 118.56 290.01 118.56 292.69 117C293.56 116.48 294.43 115.97 295.32 115.44C297.84 114.09 300.33 113 303 112C303 111.34 303 110.68 303 110C303.82 109.61 304.65 109.22 305.5 108.81C312.75 105.51 312.75 105.51 318 100C319.66 99.32 321.33 98.65 323 98C324.53 97.06 326.03 96.08 327.5 95.06C329.79 93.48 332.08 91.95 334.47 90.53C337.07 88.96 339.53 87.26 342 85.5C344.52 83.7 347.02 81.99 349.69 80.41C352.08 79.07 352.08 79.07 354 77C355.32 77 356.64 77 358 77C358 76.34 358 75.68 358 75C358.85 74.61 359.69 74.22 360.56 73.81C363.2 72.42 365.38 71.06 367.75 69.31C371 67 371 67 373 67C373 66.34 373 65.68 373 65C378.75 62 378.75 62 381 62C381 61.34 381 60.68 381 60C382.45 59.32 382.45 59.32 383.94 58.62C387.07 57.34 387.07 57.34 388 55C389.66 54.32 391.33 53.65 393 53C394.53 52.06 396.03 51.08 397.5 50.06C400.62 47.94 403.76 45.94 407 44C410.01 42.02 413.01 40.01 416 38C417.12 37.25 418.25 36.5 419.38 35.75C420.24 35.17 421.11 34.59 422 34C425 32 425 32 428 32C428.33 31.01 428.66 30.02 429 29C430.8 27.98 430.8 27.98 433 27C435.08 25.7 437.14 24.37 439.2 23.02C441 22 441 22 443 22C443 21.34 443 20.68 443 20C444.24 19.41 444.24 19.41 445.5 18.81C452.75 15.51 452.75 15.51 458 9.99999C461.27 8.45999 464.45 7.60999 468 6.99999C468 6.33999 468 5.67999 468 4.99999C468.8 4.68999 469.61 4.37999 470.44 4.05999C472.89 3.23999 472.89 3.23999 474 1.99999C475.67 1.95999 477.33 1.95999 479 1.99999C479 1.33999 479 0.679987 479 -1.2964e-05ZM517 160C517.33 160.66 517.66 161.32 518 162C518.66 161.34 519.32 160.68 520 160C519.01 160 518.02 160 517 160ZM770 175C771 177 771 177 771 177L770 175ZM765 180C765.33 180.66 765.66 181.32 766 182C766.33 181.34 766.66 180.68 767 180C766.34 180 765.68 180 765 180ZM760 185C760.33 185.66 760.66 186.32 761 187C761.33 186.34 761.66 185.68 762 185C761.34 185 760.68 185 760 185ZM196 328C196 332.29 196 336.58 196 341C196.33 341 196.66 341 197 341C197 336.71 197 332.42 197 328C196.67 328 196.34 328 196 328ZM537 333C537.33 333.66 537.66 334.32 538 335C538.66 334.34 539.32 333.68 540 333C539.01 333 538.02 333 537 333ZM535 335C535.33 335.66 535.66 336.32 536 337C536.33 336.34 536.66 335.68 537 335C536.34 335 535.68 335 535 335ZM507 355C507 355.99 507 356.98 507 358C507.66 357.01 508.32 356.02 509 355C508.34 355 507.68 355 507 355ZM420 1057C420.33 1057.99 420.66 1058.98 421 1060C421.33 1059.01 421.66 1058.02 422 1057C421.34 1057 420.68 1057 420 1057Z" fill="#302F31"/>
<path d="M1182 308C1182.33 308 1182.66 308 1183 308C1183 521.51 1183 735.02 1183 955C1182.67 955 1182.34 955 1182 955C1182 741.49 1182 527.98 1182 308Z" fill="#000100"/>
<path d="M490 536C490.33 536 490.66 536 491 536C491 731.69 491 927.38 491 1129C490.67 1129 490.34 1129 490 1129C490 933.31 490 737.62 490 536Z" fill="#313032"/>
<path d="M442 543C442.33 543 442.66 543 443 543C443 703.71 443 864.42 443 1030C442.67 1030 442.34 1030 442 1030C442 869.29 442 708.58 442 543Z" fill="#000100"/>
<path d="M555 390C555.66 390.33 556.32 390.66 557 391C556.56 395.38 553.64 397.74 550.65 400.64C550.12 401.17 549.59 401.69 549.04 402.24C547.35 403.92 545.64 405.58 543.94 407.25C542.79 408.39 541.63 409.53 540.48 410.66C537.66 413.45 534.83 416.23 532 419C531.01 418.34 530.02 417.68 529 417C534 412 534 412 539 407C539.83 406.17 540.65 405.34 541.5 404.49C543.21 402.79 544.92 401.09 546.64 399.39C547.5 398.54 548.36 397.69 549.25 396.81C550.12 395.95 550.99 395.09 551.89 394.21C554.03 392.19 554.03 392.19 555 390Z" fill="#1F1F20"/>
<path d="M542 47C542.33 47 542.66 47 543 47C543 72.74 543 98.48 543 125C542.67 125 542.34 125 542 125C542 99.26 542 73.52 542 47Z" fill="#000100"/>
<path d="M480 169C488.25 169 496.5 169 505 169C501.9 171.07 501.18 171.26 497.66 171.27C496.82 171.27 495.99 171.27 495.13 171.27C494.26 171.27 493.39 171.26 492.5 171.25C491.2 171.26 491.2 171.26 489.87 171.27C489.04 171.27 488.2 171.27 487.34 171.27C486.58 171.26 485.82 171.26 485.04 171.26C483 171 483 171 480 169Z" fill="#000100"/>
<path d="M266 1079C271.94 1079 277.88 1079 284 1079C284.33 1079.66 284.66 1080.32 285 1081C278.57 1081.1 272.34 1081.15 266 1080C266 1079.67 266 1079.34 266 1079Z" fill="#000100"/>
<path d="M345.477 1078.8C346.857 1078.81 348.247 1078.84 349.627 1078.87C350.327 1078.88 351.037 1078.89 351.767 1078.9C353.507 1078.92 355.257 1078.96 356.997 1079C356.997 1079.33 356.997 1079.66 356.997 1080C351.297 1080.99 345.787 1081.1 339.997 1081C341.997 1079 341.997 1079 345.477 1078.8Z" fill="#000100"/>
<path d="M304 1082C310.27 1082 316.54 1082 323 1082C323 1082.33 323 1082.66 323 1083C316.73 1083 310.46 1083 304 1083C304 1082.67 304 1082.34 304 1082Z" fill="#000100"/>
<path d="M878 344C883.94 344 889.88 344 896 344C896 344.33 896 344.66 896 345C890.06 345 884.12 345 878 345C878 344.67 878 344.34 878 344Z" fill="#000100"/>
<path d="M642 1274C644.97 1274 647.94 1274 651 1274C651.33 1274.66 651.66 1275.32 652 1276C648.7 1275.67 645.4 1275.34 642 1275C642 1274.67 642 1274.34 642 1274Z" fill="#000100"/>
<path d="M447 475C447.33 475 447.66 475 448 475C448 479.62 448 484.24 448 489C447.67 489 447.34 489 447 489C447 484.38 447 479.76 447 475Z" fill="#000100"/>
<path d="M935 298C935.33 298 935.66 298 936 298C935.67 301.63 935.34 305.26 935 309C934.67 309 934.34 309 934 309C933.88 301.38 933.88 301.38 935 298Z" fill="#000100"/>
<path d="M748.945 1273.8C750.965 1273.87 752.985 1273.93 754.995 1274C754.995 1274.33 754.995 1274.66 754.995 1275C751.695 1275.33 748.395 1275.66 744.995 1276C746.995 1274 746.995 1274 748.945 1273.8Z" fill="#000100"/>
<path d="M861 701C861.66 701.33 862.32 701.66 863 702C859.53 704.97 859.53 704.97 856 708C857.62 704.77 858.48 703.29 861 701Z" fill="#212122"/>
<path d="M444 510C444.33 510 444.66 510 445 510C445 513.96 445 517.92 445 522C444.67 522 444.34 522 444 522C444 518.04 444 514.08 444 510Z" fill="#000100"/>
<path d="M539 32C540.76 35.09 541 36.23 541 40C540.34 40 539.68 40 539 40C539 37.36 539 34.72 539 32Z" fill="#000100"/>
<path d="M658 1277C661.63 1277 665.26 1277 669 1277C669 1277.33 669 1277.66 669 1278C665.37 1278 661.74 1278 658 1278C658 1277.67 658 1277.34 658 1277Z" fill="#000100"/>
<path d="M1043 1079C1043.66 1079.33 1044.32 1079.66 1045 1080C1042.03 1082.47 1042.03 1082.47 1039 1085C1040.15 1082.53 1041.05 1080.95 1043 1079Z" fill="#232324"/>
<path d="M236 1074C239.38 1073.88 239.38 1073.88 243 1074C243.66 1074.66 244.32 1075.32 245 1076C242.03 1075.67 239.06 1075.34 236 1075C236 1074.67 236 1074.34 236 1074Z" fill="#000100"/>
<path d="M787 145C787.33 145 787.66 145 788 145C788 148.63 788 152.26 788 156C787.67 156 787.34 156 787 156C787 152.37 787 148.74 787 145Z" fill="#000100"/>
<path d="M250 1077C253.3 1077 256.6 1077 260 1077C260 1077.33 260 1077.66 260 1078C256.7 1078 253.4 1078 250 1078C250 1077.67 250 1077.34 250 1077Z" fill="#000100"/>
<path d="M381.062 1073.94C382.512 1073.97 382.512 1073.97 384.002 1074C381.002 1076 381.002 1076 378.812 1075.63C378.212 1075.42 377.612 1075.22 377.002 1075C378.002 1074 378.002 1074 381.062 1073.94Z" fill="#000100"/>
<path d="M731 1277C733.97 1277 736.94 1277 740 1277C740 1277.33 740 1277.66 740 1278C737.03 1278 734.06 1278 731 1278C731 1277.67 731 1277.34 731 1277Z" fill="#000100"/>
<path d="M363 1077C365.97 1077 368.94 1077 372 1077C372 1077.33 372 1077.66 372 1078C369.03 1078 366.06 1078 363 1078C363 1077.67 363 1077.34 363 1077Z" fill="#000100"/>
<path d="M450 465C450.33 465.99 450.66 466.98 451 468C450.34 468.99 449.68 469.98 449 471C448.96 469.33 448.96 467.67 449 466C449.33 465.67 449.66 465.34 450 465Z" fill="#000100"/>
<path d="M918 1174C918.66 1174.33 919.32 1174.66 920 1175C918.68 1175.99 917.36 1176.98 916 1178C916.66 1176.68 917.32 1175.36 918 1174Z" fill="#232223"/>
<path d="M1021 1096C1021.66 1096.33 1022.32 1096.66 1023 1097C1021.68 1097.99 1020.36 1098.98 1019 1100C1019.66 1098.68 1020.32 1097.36 1021 1096Z" fill="#232223"/>
<path d="M216 1069C217.65 1069 219.3 1069 221 1069C221.33 1069.66 221.66 1070.32 222 1071C219.03 1070.51 219.03 1070.51 216 1070C216 1069.67 216 1069.34 216 1069Z" fill="#000100"/>
<path d="M1086 1046C1086.66 1046.33 1087.32 1046.66 1088 1047C1086.68 1047.99 1085.36 1048.98 1084 1050C1084.66 1048.68 1085.32 1047.36 1086 1046Z" fill="#232223"/>
<path d="M1151 996C1151.66 996.33 1152.32 996.66 1153 997C1151.68 997.99 1150.36 998.98 1149 1000C1149.66 998.68 1150.32 997.36 1151 996Z" fill="#232223"/>
<path d="M1016 581C1016.66 581.33 1017.32 581.66 1018 582C1016.68 582.99 1015.36 583.98 1014 585C1014.66 583.68 1015.32 582.36 1016 581Z" fill="#232223"/>
<path d="M1061 546C1061.66 546.33 1062.32 546.66 1063 547C1061.68 547.99 1060.36 548.98 1059 550C1059.66 548.68 1060.32 547.36 1061 546Z" fill="#232223"/>
<path d="M490 523C490.33 523 490.66 523 491 523C491 525.31 491 527.62 491 530C490.67 530 490.34 530 490 530C490 527.69 490 525.38 490 523Z" fill="#313032"/>
<path d="M445 498C445.33 498 445.66 498 446 498C446 500.31 446 502.62 446 505C445.67 505 445.34 505 445 505C445 502.69 445 500.38 445 498Z" fill="#000100"/>
<path d="M785 1264C785.99 1264.33 786.98 1264.66 788 1265C786.35 1265.33 784.7 1265.66 783 1266C783.66 1265.34 784.32 1264.68 785 1264Z" fill="#000100"/>
<path d="M388 1072C389.98 1072 391.96 1072 394 1072C394 1072.33 394 1072.66 394 1073C392.02 1073 390.04 1073 388 1073C388 1072.67 388 1072.34 388 1072Z" fill="#000100"/>
<path d="M226 1072C227.98 1072 229.96 1072 232 1072C232 1072.33 232 1072.66 232 1073C230.02 1073 228.04 1073 226 1073C226 1072.67 226 1072.34 226 1072Z" fill="#000100"/>
<path d="M452 453C452.33 453 452.66 453 453 453C453 454.98 453 456.96 453 459C452.67 459 452.34 459 452 459C452 457.02 452 455.04 452 453Z" fill="#000100"/>
<path d="M760 1272C761.65 1272 763.3 1272 765 1272C765 1272.33 765 1272.66 765 1273C763.35 1273 761.7 1273 760 1273C760 1272.67 760 1272.34 760 1272Z" fill="#000100"/>
<path d="M623 1269C624.32 1269.33 625.64 1269.66 627 1270C626.01 1270.49 626.01 1270.49 625 1271C624.34 1270.34 623.68 1269.68 623 1269Z" fill="#000100"/>
<path d="M615 1267C616.65 1267 618.3 1267 620 1267C620 1267.33 620 1267.66 620 1268C618.35 1268 616.7 1268 615 1268C615 1267.67 615 1267.34 615 1267Z" fill="#000100"/>
<path d="M593 1259C594.32 1259.33 595.64 1259.66 597 1260C596.01 1260.49 596.01 1260.49 595 1261C594.34 1260.34 593.68 1259.68 593 1259Z" fill="#000100"/>
<path d="M188 1059C189.32 1059.33 190.64 1059.66 192 1060C191.01 1060.49 191.01 1060.49 190 1061C189.34 1060.34 188.68 1059.68 188 1059Z" fill="#000100"/>
<path d="M457 435C457.33 435 457.66 435 458 435C458 436.65 458 438.3 458 440C457.67 440 457.34 440 457 440C457 438.35 457 436.7 457 435Z" fill="#000100"/>
<path d="M502 362C502.66 362.33 503.32 362.66 504 363C503.01 363.66 502.02 364.32 501 365C501.33 364.01 501.66 363.02 502 362Z" fill="#272628"/>
<path d="M906 339C906.99 339.33 907.98 339.66 909 340C907.68 340.33 906.36 340.66 905 341C905.33 340.34 905.66 339.68 906 339Z" fill="#000100"/>
<path d="M216 283C216.66 283.33 217.32 283.66 218 284C217.01 284.66 216.02 285.32 215 286C215.33 285.01 215.66 284.02 216 283Z" fill="#272628"/>
<path d="M633 1272C637 1273 637 1273 637 1273L633 1272Z" fill="#000100"/>
<path d="M776 1267C780 1268 780 1268 780 1268L776 1267Z" fill="#000100"/>
<path d="M796 1259C796.66 1259.33 797.32 1259.66 798 1260C797.01 1260 796.02 1260 795 1260C795.33 1259.67 795.66 1259.34 796 1259Z" fill="#000100"/>
<path d="M806 1254C806.66 1254.33 807.32 1254.66 808 1255C807.01 1255 806.02 1255 805 1255C805.33 1254.67 805.66 1254.34 806 1254Z" fill="#000100"/>
<path d="M490 531C491 535 491 535 491 535L490 531Z" fill="#313032"/>
<path d="M490 518C491 522 491 522 491 522L490 518Z" fill="#313032"/>
<path d="M826 324C826.66 324.33 827.32 324.66 828 325C827.01 325 826.02 325 825 325C825.33 324.67 825.66 324.34 826 324Z" fill="#000100"/>
<path d="M271 249C271.66 249.33 272.32 249.66 273 250C272.01 250 271.02 250 270 250C270.33 249.67 270.66 249.34 271 249Z" fill="#000100"/>
<path d="M311 224C311.66 224.33 312.32 224.66 313 225C312.01 225 311.02 225 310 225C310.33 224.67 310.66 224.34 311 224Z" fill="#000100"/>
<path d="M366 189C366.66 189.33 367.32 189.66 368 190C367.01 190 366.02 190 365 190C365.33 189.67 365.66 189.34 366 189Z" fill="#000100"/>
<path d="M436 144C436.66 144.33 437.32 144.66 438 145C437.01 145 436.02 145 435 145C435.33 144.67 435.66 144.34 436 144Z" fill="#000100"/>
<path d="M540 132C541 136 541 136 541 136L540 132Z" fill="#000100"/>
<path d="M577 1252C580 1253 580 1253 580 1253L577 1252Z" fill="#000100"/>
<path d="M406 1067C409 1068 409 1068 409 1068L406 1067Z" fill="#000100"/>
<path d="M209 1067C212 1068 212 1068 212 1068L209 1067Z" fill="#000100"/>
<path d="M200 1064C203 1065 203 1065 203 1065L200 1064Z" fill="#000100"/>
<path d="M182 1057C185 1058 185 1058 185 1058L182 1057Z" fill="#000100"/>
<path d="M172 1052C175 1053 175 1053 175 1053L172 1052Z" fill="#000100"/>
<path d="M162 1047C165 1048 165 1048 165 1048L162 1047Z" fill="#000100"/>
<path d="M158 1044C158.66 1044 159.32 1044 160 1044C159.67 1044.66 159.34 1045.32 159 1046C158.67 1045.34 158.34 1044.68 158 1044Z" fill="#000100"/>
<path d="M933 646C933.66 646 934.32 646 935 646C934.67 646.66 934.34 647.32 934 648C933.67 647.34 933.34 646.68 933 646Z" fill="#202021"/>
<path d="M1046 558C1046.99 558.5 1046.99 558.5 1048 559C1047.01 559.5 1047.01 559.5 1046 560C1046 559.34 1046 558.68 1046 558Z" fill="#202021"/>
<path d="M821 326C821.99 326.5 821.99 326.5 823 327C822.01 327.5 822.01 327.5 821 328C821 327.34 821 326.68 821 326Z" fill="#202021"/>
<path d="M474 167C477 168 477 168 477 168L474 167Z" fill="#000100"/>
<path d="M768 1270C770 1271 770 1271 770 1271L768 1270Z" fill="#000100"/>
<path d="M770 1269C772 1270 772 1270 772 1270L770 1269Z" fill="#000100"/>
<path d="M791 1262C793 1263 793 1263 793 1263L791 1262Z" fill="#000100"/>
<path d="M600 1262C602 1263 602 1263 602 1263L600 1262Z" fill="#000100"/>
<path d="M801 1257C803 1258 803 1258 803 1258L801 1257Z" fill="#000100"/>
<path d="M588 1257C590 1258 590 1258 590 1258L588 1257Z" fill="#000100"/>
<path d="M811 1252C813 1253 813 1253 813 1253L811 1252Z" fill="#000100"/>
<path d="M568 1247C570 1248 570 1248 570 1248L568 1247Z" fill="#000100"/>
<path d="M563 1244C565 1245 565 1245 565 1245L563 1244Z" fill="#000100"/>
<path d="M552 1237C554 1238 554 1238 554 1238L552 1237Z" fill="#000100"/>
<path d="M841 1232C843 1233 843 1233 843 1233L841 1232Z" fill="#000100"/>
<path d="M545 1232C547 1233 547 1233 547 1233L545 1232Z" fill="#000100"/>
<path d="M1016 1102C1018 1103 1018 1103 1018 1103L1016 1102Z" fill="#000100"/>
<path d="M398 1070C400 1071 400 1071 400 1071L398 1070Z" fill="#000100"/>
<path d="M400 1069C402 1070 402 1070 402 1070L400 1069Z" fill="#000100"/>
<path d="M203 1065C205 1066 205 1066 205 1066L203 1065Z" fill="#000100"/>
<path d="M195 1062C197 1063 197 1063 197 1063L195 1062Z" fill="#000100"/>
<path d="M178 1055C180 1056 180 1056 180 1056L178 1055Z" fill="#000100"/>
<path d="M1081 1052C1083 1053 1083 1053 1083 1053L1081 1052Z" fill="#000100"/>
<path d="M168 1050C170 1051 170 1051 170 1051L168 1050Z" fill="#000100"/>
<path d="M155 1042C157 1043 157 1043 157 1043L155 1042Z" fill="#000100"/>
<path d="M147 1037C149 1038 149 1038 149 1038L147 1037Z" fill="#000100"/>
<path d="M135 1027C137 1028 137 1028 137 1028L135 1027Z" fill="#000100"/>
<path d="M1146 1002C1148 1003 1148 1003 1148 1003L1146 1002Z" fill="#000100"/>
<path d="M1056 552C1058 553 1058 553 1058 553L1056 552Z" fill="#000100"/>
<path d="M656 442C658 443 658 443 658 443L656 442Z" fill="#000100"/>
<path d="M689 419C691 420 691 420 691 420L689 419Z" fill="#000100"/>
<path d="M696 414C698 415 698 415 698 415L696 414Z" fill="#000100"/>
<path d="M721 397C723 398 723 398 723 398L721 397Z" fill="#000100"/>
<path d="M728 392C730 393 730 393 730 393L728 392Z" fill="#000100"/>
<path d="M754 374C756 375 756 375 756 375L754 374Z" fill="#000100"/>
<path d="M761 369C763 370 763 370 763 370L761 369Z" fill="#000100"/>
<path d="M786 352C788 353 788 353 788 353L786 352Z" fill="#000100"/>
<path d="M516 352C518 353 518 353 518 353L516 352Z" fill="#000100"/>
<path d="M865 340C867 341 867 341 867 341L865 340Z" fill="#000100"/>
<path d="M911 337C913 338 913 338 913 338L911 337Z" fill="#000100"/>
<path d="M808 337C810 338 810 338 810 338L808 337Z" fill="#000100"/>
<path d="M551 327C553 328 553 328 553 328L551 327Z" fill="#000100"/>
<path d="M558 322C560 323 560 323 560 323L558 322Z" fill="#000100"/>
<path d="M834 319C836 320 836 320 836 320L834 319Z" fill="#000100"/>
<path d="M566 317C568 318 568 318 568 318L566 317Z" fill="#000100"/>
<path d="M573 312C575 313 575 313 575 313L573 312Z" fill="#000100"/>
<path d="M581 307C583 308 583 308 583 308L581 307Z" fill="#000100"/>
<path d="M1174 286C1176 287 1176 287 1176 287L1174 286Z" fill="#000100"/>
<path d="M231 274C233 275 233 275 233 275L231 274Z" fill="#000100"/>
<path d="M251 262C253 263 253 263 253 263L251 262Z" fill="#000100"/>
<path d="M283 242C285 243 285 243 285 243L283 242Z" fill="#000100"/>
<path d="M291 237C293 238 293 238 293 238L291 237Z" fill="#000100"/>
<path d="M338 207C340 208 340 208 340 208L338 207Z" fill="#000100"/>
<path d="M736 204C738 205 738 205 738 205L736 204Z" fill="#000100"/>
<path d="M929 201C931 202 931 202 931 202L929 201Z" fill="#000100"/>
<path d="M751 194C753 195 753 195 753 195L751 194Z" fill="#000100"/>
<path d="M508 167C510 168 510 168 510 168L508 167Z" fill="#000100"/>
<path d="M401 167C403 168 403 168 403 168L401 167Z" fill="#000100"/>
<path d="M513 165C515 166 515 166 515 166L513 165Z" fill="#000100"/>
<path d="M515 164C517 165 517 165 517 165L515 164Z" fill="#000100"/>
<path d="M421 154C423 155 423 155 423 155L421 154Z" fill="#000100"/>
</g>
<defs>
<clipPath id="clip0_640_2">
<rect width="1280" height="1280" fill="white"/>
</clipPath>
</defs>
</svg>
