<svg width="35" height="41" viewBox="0 0 35 41" fill="none" xmlns="http://www.w3.org/2000/svg">
<path d="M27.6432 15.5785C26.7533 15.5814 25.8859 15.8982 25.16 16.4856C24.434 17.073 23.8851 17.9022 23.5885 18.8595H4.63779C4.25645 18.8595 3.89073 19.0323 3.62108 19.3399C3.35144 19.6476 3.19995 20.0649 3.19995 20.4999C3.19995 20.935 3.35144 21.3523 3.62108 21.6599C3.89073 21.9676 4.25645 22.1404 4.63779 22.1404H23.5885C23.8523 22.9916 24.3162 23.7436 24.9295 24.3142C25.5428 24.8847 26.2818 25.2518 27.0657 25.3752C27.8496 25.4986 28.6481 25.3736 29.3739 25.0139C30.0997 24.6541 30.7248 24.0736 31.1808 23.3357C31.6367 22.5978 31.906 21.731 31.9591 20.8302C32.0122 19.9294 31.8471 19.0292 31.4818 18.2283C31.1166 17.4274 30.5653 16.7566 29.8882 16.2892C29.2112 15.8218 28.4345 15.576 27.6432 15.5785ZM27.6432 22.1404C27.3588 22.1404 27.0808 22.0442 26.8444 21.8639C26.6079 21.6837 26.4236 21.4275 26.3148 21.1277C26.206 20.828 26.1775 20.4981 26.233 20.1799C26.2885 19.8617 26.4254 19.5694 26.6265 19.3399C26.8276 19.1105 27.0838 18.9543 27.3627 18.891C27.6416 18.8277 27.9307 18.8602 28.1934 18.9843C28.4562 19.1085 28.6807 19.3188 28.8387 19.5885C28.9967 19.8583 29.081 20.1755 29.081 20.4999C29.081 20.935 28.9295 21.3523 28.6599 21.6599C28.3903 21.9676 28.0245 22.1404 27.6432 22.1404Z" fill="#F9770F"/>
<path d="M4.63779 12.2975H6.33444C6.63668 13.2476 7.18798 14.0684 7.91342 14.6485C8.63886 15.2287 9.50326 15.5398 10.3891 15.5398C11.275 15.5398 12.1394 15.2287 12.8649 14.6485C13.5903 14.0684 14.1416 13.2476 14.4438 12.2975H30.5189C30.9002 12.2975 31.2659 12.1246 31.5356 11.817C31.8052 11.5094 31.9567 11.0921 31.9567 10.657C31.9567 10.2219 31.8052 9.80467 31.5356 9.49702C31.2659 9.18937 30.9002 9.01653 30.5189 9.01653H14.4438C14.1416 8.06645 13.5903 7.24557 12.8649 6.66547C12.1394 6.08537 11.275 5.77417 10.3891 5.77417C9.50326 5.77417 8.63886 6.08537 7.91342 6.66547C7.18798 7.24557 6.63668 8.06645 6.33444 9.01653H4.63779C4.25645 9.01653 3.89073 9.18937 3.62108 9.49702C3.35144 9.80467 3.19995 10.2219 3.19995 10.657C3.19995 11.0921 3.35144 11.5094 3.62108 11.817C3.89073 12.1246 4.25645 12.2975 4.63779 12.2975ZM10.3891 9.01653C10.6735 9.01653 10.9515 9.11275 11.188 9.293C11.4244 9.47326 11.6087 9.72947 11.7175 10.0292C11.8264 10.329 11.8548 10.6588 11.7994 10.9771C11.7439 11.2953 11.6069 11.5876 11.4058 11.817C11.2048 12.0464 10.9486 12.2027 10.6696 12.266C10.3907 12.3293 10.1016 12.2968 9.8389 12.1726C9.57617 12.0484 9.35161 11.8382 9.19362 11.5684C9.03563 11.2986 8.9513 10.9815 8.9513 10.657C8.9513 10.2219 9.10279 9.80467 9.37244 9.49702C9.64208 9.18937 10.0078 9.01653 10.3891 9.01653Z" fill="#F9770F"/>
<path d="M30.5189 28.7023H20.1952C19.893 27.7522 19.3417 26.9314 18.6162 26.3513C17.8908 25.7712 17.0264 25.46 16.1405 25.46C15.2546 25.46 14.3902 25.7712 13.6648 26.3513C12.9393 26.9314 12.388 27.7522 12.0858 28.7023H4.63779C4.25645 28.7023 3.89073 28.8752 3.62108 29.1828C3.35144 29.4905 3.19995 29.9077 3.19995 30.3428C3.19995 30.7779 3.35144 31.1951 3.62108 31.5028C3.89073 31.8104 4.25645 31.9833 4.63779 31.9833H12.0858C12.388 32.9334 12.9393 33.7542 13.6648 34.3343C14.3902 34.9144 15.2546 35.2256 16.1405 35.2256C17.0264 35.2256 17.8908 34.9144 18.6162 34.3343C19.3417 33.7542 19.893 32.9334 20.1952 31.9833H30.5189C30.9002 31.9833 31.2659 31.8104 31.5356 31.5028C31.8052 31.1951 31.9567 30.7779 31.9567 30.3428C31.9567 29.9077 31.8052 29.4905 31.5356 29.1828C31.2659 28.8752 30.9002 28.7023 30.5189 28.7023ZM16.1405 31.9833C15.8561 31.9833 15.5781 31.8871 15.3417 31.7068C15.1052 31.5265 14.9209 31.2703 14.8121 30.9706C14.7033 30.6708 14.6748 30.341 14.7303 30.0228C14.7858 29.7045 14.9227 29.4122 15.1238 29.1828C15.3249 28.9534 15.5811 28.7971 15.86 28.7338C16.1389 28.6705 16.428 28.703 16.6907 28.8272C16.9535 28.9514 17.178 29.1616 17.336 29.4314C17.494 29.7012 17.5783 30.0183 17.5783 30.3428C17.5783 30.7779 17.4268 31.1951 17.1572 31.5028C16.8875 31.8104 16.5218 31.9833 16.1405 31.9833Z" fill="#F9770F"/>
</svg>
