<svg width="66" height="60" viewBox="0 0 66 60" fill="none" xmlns="http://www.w3.org/2000/svg">
<path d="M8.24987 9.37522V1.87502C8.24987 0.838522 9.17224 0 10.3126 0C11.4525 0 12.3749 0.838522 12.3749 1.87502V9.37522C12.3749 10.4115 11.4525 11.25 10.3126 11.25C9.17224 11.2501 8.24987 10.4115 8.24987 9.37522ZM43.3125 11.2501C44.4521 11.2501 45.375 10.4116 45.375 9.37534V1.87502C45.375 0.838522 44.4521 0 43.3125 0C42.1724 0 41.2494 0.838522 41.2494 1.87502V9.37522C41.2494 10.4115 42.1724 11.2501 43.3125 11.2501ZM65.9994 44.9997C65.9994 53.2843 58.6117 60.0003 49.4995 60.0003C40.3879 60.0003 32.9998 53.2843 32.9998 44.9997C32.9998 36.7164 40.3878 30.0001 49.4995 30.0001C58.6117 30.0001 65.9994 36.7163 65.9994 44.9997ZM61.8749 44.9997C61.8749 38.7969 56.3239 33.7499 49.4996 33.7499C42.6759 33.7499 37.1249 38.7968 37.1249 44.9997C37.1249 51.2037 42.6759 56.2501 49.4996 56.2501C56.3239 56.2501 61.8749 51.2037 61.8749 44.9997ZM16.5 22.5001H8.24987V30.0001H16.5V22.5001ZM8.24987 41.2502H16.5V33.7499H8.24987V41.2502ZM20.6247 30.0001H28.875V22.5001H20.6247V30.0001ZM20.6247 41.2502H28.875V33.7499H20.6247V41.2502ZM4.12514 44.6269V18.7499H49.4996V26.2501H53.6248V11.6238C53.6248 9.34591 51.6263 7.49995 49.1574 7.49995H47.4371V9.37534C47.4371 11.4405 45.5878 13.1253 43.3127 13.1253C41.0369 13.1253 39.1877 11.4405 39.1877 9.37534V7.49995H14.4372V9.37534C14.4372 11.4405 12.5883 13.1253 10.3128 13.1253C8.03672 13.1253 6.18764 11.4405 6.18764 9.37534V7.49995H4.46941C2.00034 7.49995 0 9.34591 0 11.6238V44.627C0 46.8974 2.00034 48.7505 4.46941 48.7505H28.875V44.9998H4.46941C4.28252 44.9997 4.12514 44.8243 4.12514 44.6269ZM41.2494 30.0001V22.5001H32.9999V30.0001H41.2494ZM55.6871 44.9997H49.4995V39.3745C49.4995 38.3387 48.5771 37.5001 47.437 37.5001C46.2969 37.5001 45.375 38.3387 45.375 39.3745V46.8754C45.375 47.9114 46.2969 48.7504 47.437 48.7504H55.6871C56.8273 48.7504 57.7496 47.9114 57.7496 46.8754C57.7496 45.8389 56.8273 44.9997 55.6871 44.9997Z" fill="#E96B46"/>
</svg>
