<svg width="124" height="126" viewBox="0 0 124 126" fill="none" xmlns="http://www.w3.org/2000/svg">
<path d="M119.29 52.8171C118.251 49.6174 114.963 40.68 108.14 31.6539C103.228 25.1558 97.4983 19.9746 91.1089 16.2537C85.9396 13.2434 80.3334 11.1997 74.3633 10.1275C73.8634 4.51582 69.5332 0.115356 64.2816 0.115356C59.0316 0.115356 54.7024 4.51319 54.2003 10.1222C48.6894 11.1117 43.4893 12.9325 38.6604 15.5731C32.4137 18.9889 26.7625 23.7809 21.8635 29.8162C20.3203 31.7172 23.0082 34.3378 24.5522 32.436C33.1197 21.8812 43.7357 15.6301 56.1868 13.7748C56.1959 13.7735 56.2048 13.7737 56.2139 13.7722C67.4284 12.0937 79.2916 13.8592 89.3484 19.6926C95.3124 23.152 100.674 27.9845 105.284 34.0561C110.872 41.4145 114.005 48.8595 115.375 52.6368H13.187C14.2804 49.6176 16.4987 44.2587 20.1901 38.4881C21.5152 36.4168 18.5845 34.1294 17.2438 36.2254C12.5472 43.5668 10.1357 50.1671 9.27398 52.8169C6.81537 53.4807 4.98647 55.9154 4.98647 58.8106C4.98647 62.2149 7.51465 64.9842 10.6221 64.9842H37.792L22.0652 87.1476H2.55282C1.5592 87.1476 0.753662 88.03 0.753662 89.1185C0.753662 89.1185 0.753662 123.164 0.753662 123.313C0.753662 123.887 0.99259 124.414 1.36489 124.778C1.68466 125.091 2.10303 125.285 2.55282 125.285C2.6231 125.285 2.69363 125.28 2.76416 125.271L23.157 122.629C24.0625 122.512 24.7448 121.671 24.7448 120.672V113.351L67.4644 101.791C68.7799 101.525 69.9755 100.84 70.926 99.8068C70.9485 99.7824 70.9703 99.7574 70.9917 99.7317L92.7816 73.4054C94.8458 71.1264 95.2441 67.7048 93.9717 64.9842H117.941C121.048 64.9842 123.576 62.2146 123.576 58.8106C123.576 55.9157 121.748 53.4812 119.29 52.8171ZM70.054 9.5278C67.5795 9.28446 65.0931 9.19747 62.6096 9.26659C61.3074 9.30233 60.0075 9.38642 58.7097 9.50862C58.4463 9.53358 58.1815 9.55513 57.9198 9.58352C58.5948 6.42002 61.1909 4.05725 64.2813 4.05725C67.3718 4.05725 69.9679 6.42002 70.6429 9.58352C70.4479 9.56223 70.2502 9.54699 70.054 9.5278ZM21.1462 118.921L4.35197 121.096V91.0895H21.1462V118.921ZM90.2105 70.6473C90.1882 70.6718 90.1661 70.6968 90.145 70.7222L68.3613 97.0409C67.925 97.5027 67.379 97.8064 66.78 97.9208C66.7387 97.9286 66.698 97.9381 66.6574 97.9489L24.7446 109.29V89.7944C24.7446 89.7944 41.6916 65.911 41.7082 65.8876C42.6953 64.4975 44.8972 64.8396 45.9144 65.9462C46.9591 67.0831 47.1076 68.8661 46.2677 70.1859C46.1005 70.4487 36.8548 86.0118 36.8437 86.0307C36.0749 87.3247 36.9615 89.0675 38.3572 89.0675H63.9409C64.4157 89.0675 64.8712 88.862 65.2083 88.4957C65.2083 88.4957 85.9283 65.9704 85.9511 65.9455C87.1227 64.6717 89.0655 64.6812 90.2268 65.9633C91.4011 67.2597 91.3936 69.361 90.2105 70.6473ZM49.6712 64.9842H60.1296L41.7415 84.9743C41.7415 84.9743 49.0475 72.7108 49.2195 72.4404C50.6543 70.1859 50.7692 67.3191 49.6712 64.9842ZM52.4009 85.1256H46.7108L64.354 65.9455C64.924 65.3258 65.6801 64.9844 66.4835 64.9844C67.628 64.9844 68.7113 65.7265 69.2055 66.8571L52.4009 85.1256ZM75.1523 65.9455C75.7225 65.3258 76.4786 64.9844 77.2818 64.9844C78.4316 64.9844 79.5075 65.7218 80.004 66.8571L63.1994 85.1259H57.5093L75.1523 65.9455ZM117.94 61.0423H10.6221C9.49875 61.0423 8.58478 60.0413 8.58478 58.8106C8.58478 57.58 9.49875 56.579 10.6221 56.579H117.94C119.064 56.579 119.978 57.5802 119.978 58.8106C119.978 60.041 119.064 61.0423 117.94 61.0423Z" fill="black"/>
</svg>
