<svg width="118" height="133" viewBox="0 0 118 133" fill="none" xmlns="http://www.w3.org/2000/svg">
<path d="M117.705 106.811V95.1933H106.676V87.4478H103V80.9932H106.676V69.375H79.1864V73.2477H103.23V77.1205H31.9204V80.9932H99.5531V87.4478H24.5351C22.9513 87.4478 21.663 86.0002 21.663 84.2205C21.663 82.4408 22.9513 80.9932 24.5351 80.9932H28.4739V77.1205H24.5351C21.0512 77.1205 18.2166 80.3054 18.2166 84.2205C18.2166 88.1356 21.0512 91.3205 24.5351 91.3205H103.229V95.1933H43.8353V99.066H114.258V102.939H16.9529C11.5683 102.939 7.18787 107.861 7.18787 113.912C7.18787 119.962 11.5683 124.884 16.9529 124.884H98.1252V121.012H16.9531C13.4689 121.012 10.6346 117.827 10.6346 113.912C10.6346 109.996 13.4689 106.811 16.9531 106.811H110.582V113.266H34.1854V117.139H110.582V121.012H101.572V124.884H114.258V128.757H16.9531C9.66817 128.757 3.74163 122.097 3.74163 113.912C3.74163 105.726 9.66817 99.066 16.9531 99.066H40.389V95.1933H24.5353C19.1508 95.1933 14.7703 90.271 14.7703 84.2205C14.7703 78.17 19.1508 73.2477 24.5353 73.2477H75.7399V69.375H24.5353C17.2504 69.375 11.3239 76.0346 11.3239 84.2205C11.3239 88.5946 13.017 92.5319 15.7045 95.2514C7.10079 95.9719 0.295166 104.063 0.295166 113.912C0.295166 124.233 7.76779 132.63 16.9531 132.63H117.705V121.012H114.029V106.811H117.705Z" fill="black"/>
<path d="M27.2927 113.266H30.7392V117.139H27.2927V113.266Z" fill="black"/>
<path d="M32.0027 58.1473L32.7701 58.7223C33.0693 58.9464 40.3119 64.2113 59 64.2113C77.6881 64.2113 84.9308 58.9464 85.2299 58.7223L85.9973 58.1473V25.5456L96.3367 21.6728V39.9545C93.688 40.7998 91.7414 43.5404 91.7414 46.7839V56.4658H104.378V46.7839C104.378 43.5404 102.432 40.7998 99.7832 39.9545V20.3819L105.807 18.1257L87.7093 11.3468L86.6193 15.0208L94.9083 18.1254L59 31.5754L23.0918 18.1257L59 4.67589L83.3498 13.7964L84.4398 10.1225L59 0.593506L12.1931 18.1257L32.0027 25.5456V58.1473ZM100.932 46.7839V52.593H95.1879V46.7839C95.1879 45.0043 96.4762 43.5566 98.06 43.5566C99.6437 43.5566 100.932 45.0043 100.932 46.7839ZM35.4492 26.8365L59 35.6578L82.5509 26.8365V42.0075H78.3002V45.8803H82.5509V49.753H75.0835V53.6258H82.5509V55.9603C80.33 57.1755 73.1845 60.3385 59 60.3385C44.8047 60.3385 37.659 57.1706 35.4492 55.9613V26.8365Z" fill="black"/>
<path d="M20.3997 113.266H23.8461V117.139H20.3997V113.266Z" fill="black"/>
<path d="M68.1907 49.7531H71.6371V53.6258H68.1907V49.7531Z" fill="black"/>
</svg>
