<svg width="34" height="37" viewBox="0 0 34 37" fill="none" xmlns="http://www.w3.org/2000/svg">
<path d="M16.875 19.2333C14.65 19.2333 12.4749 18.6693 10.6248 17.6126C8.77479 16.5559 7.33285 15.054 6.48136 13.2968C5.62987 11.5396 5.40709 9.606 5.84117 7.74055C6.27525 5.8751 7.34671 4.16158 8.92005 2.81666C10.4934 1.47175 12.498 0.555847 14.6802 0.184786C16.8625 -0.186275 19.1245 0.00416672 21.1802 0.73203C23.2359 1.45989 24.9929 2.69248 26.229 4.27394C27.4652 5.85539 28.125 7.71468 28.125 9.61667C28.125 12.1672 26.9397 14.6132 24.83 16.4167C22.7202 18.2202 19.8587 19.2333 16.875 19.2333ZM16.875 2.40417C15.2062 2.40417 13.5749 2.82718 12.1874 3.6197C10.7998 4.41222 9.71839 5.53866 9.07977 6.85657C8.44116 8.17448 8.27407 9.62467 8.59963 11.0238C8.92519 12.4228 9.72879 13.708 10.9088 14.7167C12.0888 15.7254 13.5922 16.4123 15.2289 16.6906C16.8656 16.9689 18.5621 16.8261 20.1039 16.2802C21.6456 15.7343 22.9634 14.8098 23.8905 13.6237C24.8177 12.4376 25.3125 11.0432 25.3125 9.61667C25.3125 7.7038 24.4236 5.86927 22.8412 4.51666C21.2589 3.16406 19.1128 2.40417 16.875 2.40417Z" fill="#8A8A8A"/>
<path d="M26.7188 36.0625H7.03125C5.16645 36.0625 3.37802 35.4293 2.05941 34.3021C0.74079 33.1749 0 31.6462 0 30.0521V25.2438C4.25638e-05 25.0352 0.0635954 24.8301 0.18441 24.6489C0.305224 24.4676 0.479141 24.3164 0.689062 24.21L7.72031 20.6037C8.03755 20.4812 8.39669 20.4636 8.72825 20.5543C9.0598 20.645 9.34019 20.8377 9.51517 21.0949C9.69015 21.3522 9.74727 21.6558 9.67549 21.947C9.6037 22.2382 9.40811 22.4963 9.12656 22.6713L2.8125 25.929V30.0521C2.8125 31.0085 3.25697 31.9258 4.04814 32.6021C4.83931 33.2784 5.91237 33.6584 7.03125 33.6584H26.7188C27.8376 33.6584 28.9107 33.2784 29.7019 32.6021C30.493 31.9258 30.9375 31.0085 30.9375 30.0521V25.929L24.5953 22.6713C24.416 22.602 24.2557 22.5014 24.1248 22.3758C23.9938 22.2503 23.8952 22.1026 23.8352 21.9424C23.7752 21.7823 23.7552 21.6131 23.7765 21.4459C23.7977 21.2787 23.8598 21.1171 23.9587 20.9717C24.0576 20.8263 24.1911 20.7003 24.3506 20.6017C24.5101 20.5032 24.6919 20.4343 24.8845 20.3997C25.077 20.365 25.2759 20.3652 25.4684 20.4004C25.6608 20.4355 25.8424 20.5048 26.0016 20.6037L33.0328 24.21C33.248 24.3133 33.4275 24.4633 33.5534 24.6448C33.6793 24.8262 33.7471 25.0328 33.75 25.2438V30.0521C33.75 31.6462 33.0092 33.1749 31.6906 34.3021C30.372 35.4293 28.5836 36.0625 26.7188 36.0625Z" fill="#8A8A8A"/>
</svg>
