<svg width="87" height="66" viewBox="0 0 87 66" fill="none" xmlns="http://www.w3.org/2000/svg">
<path d="M86.7453 54.3666C86.7453 56.2736 86.2104 58.0414 85.3535 59.5968L57.9645 28.867L85.0566 5.09774C86.1105 6.77487 86.7453 8.74495 86.7453 10.8739V54.3666ZM43.3728 34.4466L81.0705 1.37003C79.5236 0.520799 77.7816 0 75.9024 0H10.8431C8.96163 0 7.21908 0.520799 5.67837 1.37003L43.3728 34.4466ZM53.8826 32.4455L45.1566 40.1068C44.6462 40.5526 44.0106 40.7753 43.3728 40.7753C42.7345 40.7753 42.099 40.5526 41.5886 40.1068L32.8606 32.4452L5.12505 63.5678C6.78751 64.6137 8.73584 65.2403 10.8429 65.2403H75.9024C78.0091 65.2403 79.9584 64.6137 81.6203 63.5678L53.8826 32.4455ZM1.6891 5.09756C0.635379 6.77469 0 8.74477 0 10.8739V54.3668C0 56.2738 0.532403 58.0416 1.39251 59.597L28.7783 28.8618L1.6891 5.09756Z" fill="white"/>
</svg>
