<svg width="70" height="72" viewBox="0 0 70 72" fill="none" xmlns="http://www.w3.org/2000/svg">
<path d="M69.5976 57.3971L69.2496 56.317C68.4254 53.7935 65.7241 51.1616 63.2424 50.4682L54.0574 47.8834C51.5666 47.1853 48.0135 48.124 46.1911 50.0012L42.8669 53.4257C30.7861 50.0628 21.3128 40.3035 18.0527 27.8608L21.3771 24.4362C23.1995 22.5588 24.1105 18.9035 23.4329 16.3375L20.9283 6.87095C20.2506 4.3097 17.6911 1.52689 15.2462 0.687227L14.1977 0.324073C11.748 -0.515587 8.25446 0.333582 6.43221 2.21078L1.45967 7.33794C0.571327 8.24824 0.00356802 10.8519 0.00356802 10.8614C-0.170349 27.1248 6.02005 42.7938 17.1874 54.2981C28.3273 65.7739 43.4807 72.1416 59.2222 72.0049C59.3045 72.0049 61.9052 71.4294 62.7936 70.5189L67.7661 65.3964C69.5884 63.5194 70.4125 59.9206 69.5976 57.3971Z" fill="white"/>
</svg>
