<svg width="47" height="47" viewBox="0 0 47 47" fill="none" xmlns="http://www.w3.org/2000/svg">
<path d="M7.77246 22.4369H10.1936C9.79346 22.8303 9.41208 23.2723 9.06294 23.7762C7.59789 25.8908 6.79217 28.7109 6.79217 31.7171C6.79217 37.902 10.2796 42.9355 14.5646 42.9355H17.7579V46.0115C17.7579 46.4495 17.9621 46.8333 18.2561 46.9477C18.5489 47.064 18.8591 46.876 19.0122 46.4961L21.5555 40.1367L24.0989 46.5135C24.2211 46.8197 24.4454 47 24.6817 47C24.7395 47 24.7972 46.9903 24.8549 46.9671C25.149 46.8546 25.3531 46.4709 25.3531 46.0309V42.9355H46.3286C46.6992 42.9355 47 42.5014 47 41.9664V38.8478C47 38.6463 46.9476 38.4699 46.8751 38.3168C46.8671 38.2993 46.8697 38.276 46.8617 38.2586C45.8613 36.3727 45.3322 34.1108 45.3322 31.7171C45.3322 29.3234 45.8613 27.0615 46.8617 25.1756C46.8711 25.1581 46.8671 25.1349 46.8751 25.1174C46.9476 24.9624 47 24.786 47 24.5864V21.4678C47 20.9328 46.6992 20.4987 46.3286 20.4987H40.2078V18.3492C40.2078 18.3298 40.2011 18.3123 40.1998 18.293C40.1984 18.2523 40.189 18.2193 40.1837 18.1805C40.1675 18.0507 40.1353 17.9363 40.0883 17.8297C40.0789 17.8084 40.0803 17.7813 40.0695 17.7599C39.0691 15.8741 38.54 13.6121 38.54 11.2184C38.54 8.82473 39.0691 6.56283 40.0695 4.67693C40.0803 4.65561 40.0789 4.62848 40.0883 4.60716C40.1367 4.50056 40.1675 4.3862 40.1837 4.25634C40.189 4.21757 40.1984 4.18269 40.1998 4.14392C40.2011 4.12454 40.2078 4.1071 40.2078 4.08771V0.969112C40.2078 0.434162 39.907 0 39.5364 0H7.77246C5.68969 0 3.73583 1.16487 2.27077 3.27754C0.805714 5.3902 0 8.21032 0 11.2184C0 17.4033 3.4874 22.4369 7.77246 22.4369ZM25.3505 32.6862H44.0403C44.1357 34.5275 44.4929 36.2836 45.1079 37.8787H25.3505V32.6862ZM44.0417 30.748H24.679H18.4294H13.6381C13.2674 30.748 12.9666 31.1821 12.9666 31.7171C12.9666 32.252 13.2674 32.6862 13.6381 32.6862H17.7579V37.8787H14.7983C12.4443 37.8787 10.5293 35.1148 10.5293 31.7171C10.5293 30.0677 10.9725 28.521 11.7742 27.3619C12.592 26.197 13.6663 25.5555 14.7969 25.5555H45.1066C44.4929 27.1506 44.137 28.9047 44.0417 30.748ZM24.0076 42.3987L22.1343 37.7178C22.0135 37.4194 21.7932 37.2352 21.5542 37.2352C21.3152 37.2352 21.0949 37.4174 20.9741 37.7159L19.0995 42.3948V41.9664V38.8478V32.6862H24.0063V38.8478V41.9664L24.0076 42.3987ZM25.3505 40.9973V39.8169H45.6571V40.9973H25.3505ZM45.6571 23.6173H14.7996C13.3131 23.6173 11.9044 24.4565 10.8301 25.9877C9.77063 27.517 9.18783 29.5502 9.18783 31.7171C9.18783 36.1828 11.7057 39.8169 14.7996 39.8169H17.7593V40.9973H14.566C11.0208 40.9973 8.13637 36.834 8.13637 31.7171C8.13637 29.2284 8.80377 26.8967 10.0137 25.1465C11.2249 23.3982 12.8404 22.4369 14.566 22.4369H39.5377H45.6571V23.6173ZM37.2388 10.2493H6.84588C6.47526 10.2493 6.17446 10.6835 6.17446 11.2184C6.17446 11.7534 6.47526 12.1876 6.84588 12.1876H37.2388C37.3341 14.0269 37.6806 15.7868 38.2943 17.3801H8.00746C5.65343 17.3801 3.73851 14.6161 3.73851 11.2184C3.73851 9.56901 4.18166 8.02231 4.98334 6.86325C5.80114 5.69838 6.87543 5.05683 8.00611 5.05683H38.2929C37.6806 6.64811 37.3341 8.40995 37.2388 10.2493ZM3.22017 4.64786C4.43143 2.89958 6.04689 1.93822 7.77246 1.93822H38.865V3.1186H8.00746C6.52091 3.1186 5.11226 3.95785 4.03797 5.48905C2.97846 7.01831 2.39566 9.05151 2.39566 11.2184C2.39566 15.6841 4.91351 19.3183 8.00746 19.3183H38.865V20.4987H14.5646H7.77246C4.22731 20.4987 1.34286 16.3354 1.34286 11.2184C1.34286 8.72782 2.01026 6.39614 3.22017 4.64786Z" fill="#010101"/>
</svg>
