<svg width="81" height="77" viewBox="0 0 81 77" fill="none" xmlns="http://www.w3.org/2000/svg">
<path fill-rule="evenodd" clip-rule="evenodd" d="M18.3921 70.8013L3.0637 74.6224L7.15512 60.4203L6.19227 58.9641C2.13807 52.8368 -0.00306961 45.7548 3.30298e-06 38.4828C0.00888061 17.2634 18.177 0 40.5167 0C51.3341 0.00356902 61.5027 4.01191 69.1491 11.2865C76.7956 18.5612 81.0041 28.2303 81 38.514C80.9908 59.735 62.823 77 40.5007 77H40.4843C33.2169 76.9971 26.0891 75.1418 19.8708 71.6354L18.3921 70.8013ZM65.0488 49.5273C64.7446 49.0448 63.933 48.7554 62.7155 48.1759C61.4979 47.5968 55.5122 44.7983 54.3961 44.4119C53.2803 44.0258 52.468 43.8331 51.6567 44.9907C50.8451 46.1491 48.5118 48.7554 47.8016 49.5273C47.0914 50.2995 46.3809 50.3962 45.164 49.817C43.9464 49.2379 40.0234 48.0163 35.373 44.0745C31.7535 41.0064 29.3098 37.2181 28.5996 36.0598C27.8894 34.9015 28.5242 34.2753 29.1336 33.6984C29.6813 33.1799 30.3512 32.3467 30.96 31.6715C31.5687 30.996 31.7716 30.5132 32.1772 29.7416C32.5831 28.9691 32.3803 28.2936 32.0758 27.7144C31.7716 27.1353 29.3364 21.4404 28.322 19.1238C27.3336 16.8678 26.3301 17.1735 25.5827 17.1378C24.8732 17.104 24.0609 17.0969 23.2493 17.0969C22.4377 17.0969 21.1184 17.3863 20.0026 18.5446C18.8865 19.7029 15.7412 22.502 15.7412 28.1966C15.7412 33.8914 20.104 39.3929 20.7128 40.1651C21.3216 40.9373 29.2979 52.6233 41.5113 57.6348C44.4163 58.8269 46.6837 59.5387 48.4524 60.0718C51.3689 60.9527 54.0232 60.8284 56.1207 60.5303C58.4602 60.1983 63.3239 57.7318 64.339 55.0294C65.3531 52.3264 65.3531 50.0098 65.0488 49.5273Z" fill="white"/>
</svg>
